<svg width="106" height="103" viewBox="0 0 106 103" fill="none" xmlns="http://www.w3.org/2000/svg">
<g clip-path="url(#clip0_133_877)">
<path d="M53 103C82.2711 103 106 79.9427 106 51.5C106 23.0573 82.2711 0 53 0C23.7289 0 0 23.0573 0 51.5C0 79.9427 23.7289 103 53 103Z" fill="#58B0E0"/>
<path fill-rule="evenodd" clip-rule="evenodd" d="M39.8872 64.4668L67.1711 64.6685V86.1985L39.8872 85.9968V64.4668Z" fill="#F9DCA4"/>
<path fill-rule="evenodd" clip-rule="evenodd" d="M75.4194 98.1748C68.4842 101.313 60.933 102.959 53.2826 102.999C45.6322 103.04 38.0631 101.474 31.0933 98.4082V80.6948H75.4177L75.4194 98.1748Z" fill="#E6E6E6"/>
<path fill-rule="evenodd" clip-rule="evenodd" d="M57.2933 102.833C55.8776 102.943 54.4466 102.999 53.0001 103C51.9081 103 50.8246 102.968 49.7498 102.905L51.5164 87.9248H55.6501L57.2933 102.833Z" fill="#E9573E"/>
<path fill-rule="evenodd" clip-rule="evenodd" d="M44.0071 102.22C38.1635 101.162 32.5202 99.2447 27.2718 96.5332C22.2308 93.8073 17.6793 90.3033 13.7954 86.1582L15.9977 80.9915L39.882 70.6382C39.882 79.3249 42.8168 93.1065 44.0071 102.22Z" fill="#677079"/>
<path opacity="0.11" fill-rule="evenodd" clip-rule="evenodd" d="M67.1763 64.5985V69.9835C59.0599 79.1952 43.5527 77.8919 40.0759 64.2969L67.1763 64.5985Z" fill="black"/>
<path fill-rule="evenodd" clip-rule="evenodd" d="M53.3929 14.0532C89.8943 14.0532 75.6683 72.8299 53.3929 72.8299C32.3524 72.8299 16.8915 14.0532 53.3929 14.0532Z" fill="#FFE8BE"/>
<path fill-rule="evenodd" clip-rule="evenodd" d="M31.4998 40.0769C26.2341 42.3085 30.7108 52.8869 34.0246 52.8402C32.6501 48.7013 31.8022 44.416 31.4998 40.0769ZM75.7094 40.0752C80.975 42.3069 76.4983 52.8869 73.1863 52.8385C74.5597 48.7 75.4071 44.4137 75.7094 40.0752Z" fill="#F9DCA4"/>
<path fill-rule="evenodd" clip-rule="evenodd" d="M37.6164 23.8798C31.8979 29.6431 33.9098 45.5964 33.9098 45.5964L32.1088 44.7714C20.8673 2.44811 86.3678 2.44645 75.0628 44.7714L73.2619 45.5964C73.2619 45.5964 75.2755 29.6431 69.557 23.8798C62.4921 30.5381 44.6419 30.5031 37.6164 23.8798Z" fill="#464449"/>
<path fill-rule="evenodd" clip-rule="evenodd" d="M63.0632 102.072C74.6535 99.8967 85.163 94.0198 92.9216 85.3751L91.052 80.9901L67.1694 70.6367C67.1694 79.3234 64.2536 92.9584 63.0632 102.072Z" fill="#677079"/>
<path fill-rule="evenodd" clip-rule="evenodd" d="M67.1712 69.9668L53.5764 80.7418L64.8505 90.5968C64.8505 90.5968 67.8555 74.4235 67.1712 69.9668Z" fill="white"/>
<path fill-rule="evenodd" clip-rule="evenodd" d="M39.8839 69.9668L53.5867 80.7418L42.1891 90.5968C42.1891 90.5968 39.1943 74.4235 39.8839 69.9668Z" fill="white"/>
<path fill-rule="evenodd" clip-rule="evenodd" d="M48.2129 85.3783L53.5935 80.6816L58.9741 85.3783L53.5935 90.0733L48.2129 85.3783Z" fill="#E9573E"/>
<path fill-rule="evenodd" clip-rule="evenodd" d="M44.1958 102.288C42.0056 101.932 39.8407 101.443 37.714 100.822C37.6473 100.772 37.5821 100.72 37.5184 100.667L31.4552 90.0168L39.2439 84.5835H31.0933L32.8376 73.1652L39.8871 68.8335C40.1925 81.1168 42.9042 94.9268 44.1958 102.288ZM62.8538 102.11C63.8624 101.947 64.8606 101.72 65.8503 101.47C67.0193 101.17 68.1824 100.848 69.339 100.505L69.5689 100.433L75.591 89.9085L67.8022 84.5052H75.9529L74.2085 73.1435L67.159 68.8335C66.8537 81.0535 64.1437 94.7852 62.8538 102.11Z" fill="#434955"/>
</g>
<defs>
<clipPath id="clip0_133_877">
<rect width="106" height="103" fill="white"/>
</clipPath>
</defs>
</svg>
