<svg width="606" height="459" viewBox="0 0 606 459" fill="none" xmlns="http://www.w3.org/2000/svg">
<path d="M283.218 59.8911C273.478 99.4747 309.648 138.66 347.754 154.905C385.86 171.165 429.557 169.227 470.381 161.475C487.995 158.135 506.103 153.435 519.786 142.068C533.471 130.702 541.404 110.965 533.904 95.0215C527.286 80.9611 511.173 73.7591 495.813 70.0619C480.452 66.3647 464.137 64.8528 450.452 57.0735C437.476 49.6928 428.271 37.4742 416.986 27.7982C396.134 9.94433 366.843 1.093 339.734 6.7419C312.61 12.3908 291.497 26.2451 283.218 59.8911Z" fill="#DFF3FC"/>
<path d="M574.979 241.956V212.01H563.76C562.413 206.775 560.359 201.838 557.727 197.29L565.66 189.248L544.737 168.071L536.792 176.1C532.301 173.437 527.423 171.359 522.249 169.994V158.64H492.664V169.994C487.491 171.359 482.614 173.437 478.121 176.1L470.176 168.071L449.253 189.248L457.186 197.29C454.554 201.837 452.513 206.774 451.153 212.01H439.935V241.956H451.153C452.513 247.191 454.554 252.128 457.186 256.676L449.253 264.718L470.176 285.895L478.121 277.866C482.613 280.53 487.49 282.595 492.664 283.972V295.327H522.249V283.972C527.422 282.595 532.299 280.53 536.792 277.866L544.737 285.895L565.66 264.718L557.727 256.676C560.359 252.13 562.412 247.193 563.76 241.956H574.979ZM507.466 252.928C493.306 252.928 481.825 241.307 481.825 226.975C481.825 212.657 493.306 201.038 507.466 201.038C521.611 201.038 533.091 212.657 533.091 226.975C533.091 241.309 521.611 252.928 507.466 252.928Z" fill="#A2C7EB"/>
<path d="M485.576 316.987L479.947 302.137L474.384 304.297C472.731 301.961 470.785 299.907 468.625 298.159L471.047 292.644L456.692 286.17L454.261 291.681C451.533 291.225 448.724 291.134 445.902 291.453L443.767 285.822L429.095 291.519L431.23 297.15C428.922 298.823 426.893 300.793 425.166 302.979L419.716 300.527L413.321 315.058L418.766 317.518C418.316 320.279 418.232 323.122 418.54 325.979L412.977 328.14L418.606 342.99L424.169 340.83C425.828 343.165 427.767 345.22 429.928 346.968L427.505 352.483L441.861 358.957L444.292 353.446C447.02 353.902 449.828 353.986 452.651 353.674L454.785 359.305L469.457 353.608L467.323 347.977C469.63 346.297 471.66 344.334 473.387 342.148L478.836 344.6L485.232 330.069L479.787 327.609C480.238 324.848 480.327 322.004 480.012 319.148L485.576 316.987ZM454.157 335.431C447.135 338.158 439.256 334.606 436.562 327.498C433.871 320.397 437.38 312.424 444.403 309.697C451.418 306.973 459.295 310.526 461.986 317.625C464.68 324.732 461.171 332.707 454.157 335.431Z" stroke="#A2C7EB" stroke-miterlimit="10"/>
<path d="M437.503 264.896L433.7 254.862L429.941 256.321C428.825 254.742 427.509 253.355 426.05 252.173L427.686 248.446L417.985 244.072L416.342 247.797C414.498 247.489 412.6 247.428 410.693 247.643L409.251 243.839L399.337 247.689L400.779 251.493C399.219 252.623 397.849 253.955 396.681 255.431L392.998 253.775L388.678 263.594L392.358 265.257C392.053 267.123 391.996 269.043 392.205 270.974L388.447 272.434L392.25 282.469L396.009 281.009C397.13 282.587 398.441 283.975 399.901 285.157L398.264 288.884L407.965 293.258L409.608 289.533C411.452 289.841 413.349 289.899 415.257 289.687L416.699 293.491L426.613 289.642L425.171 285.837C426.73 284.703 428.101 283.376 429.268 281.9L432.95 283.556L437.271 273.737L433.591 272.074C433.895 270.207 433.957 268.286 433.743 266.356L437.503 264.896ZM416.274 277.357C411.53 279.199 406.207 276.799 404.386 271.997C402.568 267.199 404.938 261.812 409.683 259.969C414.422 258.129 419.745 260.529 421.563 265.327C423.385 270.129 421.013 275.517 416.274 277.357Z" stroke="#A2C7EB" stroke-miterlimit="10"/>
<path d="M434.052 89.2043C434.052 104.252 427.103 117.665 416.293 126.332C408.333 132.726 398.269 136.519 387.305 136.519C376.37 136.519 366.304 132.726 358.317 126.332C347.493 117.665 340.558 104.252 340.558 89.2043C340.558 63.0736 361.489 41.8882 387.305 41.8882C413.121 41.8882 434.052 63.0736 434.052 89.2043Z" fill="#0097D8" stroke="#0097D8" stroke-miterlimit="10"/>
<path d="M389.19 89.0144C397.578 87.9666 403.539 80.2353 402.503 71.7462C401.468 63.2571 393.829 57.2247 385.442 58.2726C377.054 59.3205 371.094 67.0517 372.129 75.5408C373.164 84.03 380.803 90.0623 389.19 89.0144Z" fill="white"/>
<path d="M416.293 120.364C408.333 126.758 398.269 130.553 387.305 130.553C376.37 130.553 366.304 126.76 358.317 120.364C361.307 107.05 364.058 95.556 366.922 92.6436C370.964 88.5519 381.704 86.1646 387.29 86.1646C392.876 86.1646 404.121 89.0632 406.199 91.1661C410.439 95.4419 414.089 107.25 416.293 120.364Z" fill="white"/>
<path d="M320.123 205.844V182.479C320.123 176.101 325.229 170.934 331.529 170.934H404.258C410.559 170.934 415.664 176.101 415.664 182.479V205.844C415.664 212.221 410.559 217.389 404.258 217.389H331.543C325.242 217.403 320.123 212.221 320.123 205.844Z" fill="#0097D8"/>
<path d="M350.839 204.621L315.642 239.325L372.687 210.146" fill="#0097D8"/>
<path d="M328.949 181.901V181.778C328.949 180.829 329.71 180.06 330.647 180.06H366.604C367.541 180.06 368.301 180.829 368.301 181.778V181.901C368.301 182.85 367.541 183.619 366.604 183.619H330.647C329.71 183.619 328.949 182.85 328.949 181.901Z" fill="white"/>
<path d="M369.917 181.901V181.778C369.917 180.829 370.677 180.06 371.614 180.06H402.995C403.932 180.06 404.693 180.829 404.693 181.778V181.901C404.693 182.85 403.932 183.619 402.995 183.619H371.614C370.677 183.619 369.917 182.85 369.917 181.901Z" fill="white"/>
<path d="M356.216 189.722V189.598C356.216 188.65 356.976 187.88 357.913 187.88H402.995C403.932 187.88 404.693 188.65 404.693 189.598V189.722C404.693 190.67 403.932 191.44 402.995 191.44H357.913C356.976 191.44 356.216 190.67 356.216 189.722Z" fill="white"/>
<path d="M328.949 189.722V189.598C328.949 188.65 329.71 187.88 330.647 187.88H350.784C351.721 187.88 352.482 188.65 352.482 189.598V189.722C352.482 190.67 351.721 191.44 350.784 191.44H330.647C329.71 191.44 328.949 190.67 328.949 189.722Z" fill="white"/>
<path d="M362.476 197.542V197.418C362.476 196.47 363.236 195.7 364.173 195.7H402.995C403.932 195.7 404.693 196.47 404.693 197.418V197.542C404.693 198.49 403.932 199.26 402.995 199.26H364.173C363.236 199.26 362.476 198.49 362.476 197.542Z" fill="white"/>
<path d="M328.949 197.542V197.418C328.949 196.47 329.71 195.7 330.647 195.7H357.465C358.402 195.7 359.162 196.47 359.162 197.418V197.542C359.162 198.49 358.402 199.26 357.465 199.26H330.647C329.71 199.26 328.949 198.49 328.949 197.542Z" fill="white"/>
<path d="M328.949 205.363V205.239C328.949 204.291 329.71 203.521 330.647 203.521H340.6C341.537 203.521 342.297 204.291 342.297 205.239V205.363C342.297 206.311 341.537 207.081 340.6 207.081H330.647C329.71 207.081 328.949 206.311 328.949 205.363Z" fill="white"/>
<path d="M345.814 205.363V205.239C345.814 204.291 346.575 203.521 347.512 203.521H402.995C403.932 203.521 404.693 204.291 404.693 205.239V205.363C404.693 206.311 403.932 207.081 402.995 207.081H347.512C346.575 207.081 345.814 206.311 345.814 205.363Z" fill="white"/>
<path d="M140.609 172.769C151.088 149.974 141.326 122.897 118.806 112.29C96.2849 101.683 69.5332 111.563 59.054 134.358C48.5748 157.153 58.3364 184.231 80.8571 194.838C103.378 205.445 130.13 195.564 140.609 172.769Z" fill="#0097D8"/>
<path d="M92.8323 186.317C98.5113 184.298 101.498 178.001 99.5033 172.253C97.5086 166.505 91.2878 163.482 85.6089 165.501C79.9299 167.52 76.9432 173.817 78.9379 179.565C80.9326 185.313 87.1534 188.336 92.8323 186.317Z" fill="white"/>
<path d="M83.4955 179.865L82.9686 172.869L88.6921 168.911L94.9412 171.947L95.4667 178.943L89.7445 182.903L83.4955 179.865Z" fill="#0097D8"/>
<path d="M114.071 141.602C119.739 139.552 122.691 133.239 120.665 127.502C118.639 121.766 112.402 118.778 106.734 120.828C101.067 122.879 98.1147 129.192 100.141 134.928C102.167 140.665 108.404 143.653 114.071 141.602Z" fill="white"/>
<path d="M105.009 134.514L105.383 125.618L112.006 119.759L118.255 122.797L117.88 131.692L111.256 137.55L105.009 134.514Z" fill="#0097D8"/>
<path d="M96.7662 170.808L88.4301 166.756L94.5908 152.37C94.9819 151.458 95.4069 150.56 95.8659 149.68L103.105 135.818L111.441 139.87L105.499 154.037C105.04 155.133 104.529 156.206 103.972 157.255L96.7662 170.808Z" fill="white"/>
<path d="M131.056 178.056C132.662 177.301 158.466 178.493 158.466 178.493L139.866 161.208L131.056 178.056Z" fill="#0097D8"/>
<path d="M244.929 76.5894C254.62 53.9103 244.314 27.5728 221.907 17.7629C199.501 7.9529 173.481 18.3853 163.789 41.0644C154.097 63.7434 164.404 90.081 186.81 99.8909C209.216 109.701 235.237 99.2684 244.929 76.5894Z" fill="#0097D8"/>
<path d="M205.843 20.7012H202.891V58.2753H205.843V20.7012Z" fill="white"/>
<path d="M171.748 79.9671L173.428 82.4238L204.365 60.7494L202.685 58.2927L171.748 79.9671Z" fill="white"/>
<path d="M208.435 58.8287C208.435 61.1034 206.614 62.9465 204.367 62.9465C202.12 62.9465 200.299 61.1034 200.299 58.8287C200.299 56.554 202.12 54.7109 204.367 54.7109C206.614 54.7109 208.435 56.5554 208.435 58.8287Z" fill="white"/>
<path d="M324.374 361.786C321.753 320.883 339.433 278.551 369.211 254.333C370.135 295.443 352.631 337.047 324.374 361.786Z" fill="#A2C7EB"/>
<path d="M364.35 265.343C351.803 289.011 340.953 313.778 331.937 339.329C320.979 370.35 312.356 403.308 293.59 429.313" stroke="#6F8BBF" stroke-miterlimit="10" stroke-linecap="round"/>
<path d="M314.977 387.516C330.049 353.389 359.964 327.605 392.947 320.307C378.906 356.88 347.322 384.781 314.977 387.516Z" fill="#A2C7EB"/>
<path d="M384.854 327.825C362.326 347.892 339.419 367.395 316.131 386.321" stroke="#6F8BBF" stroke-miterlimit="10" stroke-linecap="round"/>
<path d="M306.083 417.244C326.22 386.801 363.372 370.912 394.115 379.599C371.506 409.657 334.272 425.587 306.083 417.244Z" fill="#A2C7EB"/>
<path d="M386.741 381.798C360.344 398.511 331.869 410.854 302.511 418.276" stroke="#6F8BBF" stroke-miterlimit="10" stroke-linecap="round"/>
<path d="M316.959 377.166C323.396 342.888 313.741 304.679 292.246 279.403C283.433 313.09 291.838 352.564 316.959 377.166Z" fill="#A2C7EB"/>
<path d="M294.459 288.145C298.696 320.031 306.232 349.898 317.91 379.091" stroke="#6F8BBF" stroke-miterlimit="10" stroke-linecap="round"/>
<path d="M305.906 406.359C303.163 371.118 285.32 338.022 259.222 319.756C260.729 338.421 265.631 356.412 273.412 372.768C282.36 391.556 295.505 403.472 305.906 406.359Z" fill="#A2C7EB"/>
<path d="M263.092 326.89C273.357 356.275 288.131 383.516 306.558 407.101" stroke="#6F8BBF" stroke-miterlimit="10" stroke-linecap="round"/>
<path d="M507.458 397.906C521.702 360.398 554.468 329.968 590.602 320.704C574.769 357.704 542.451 387.529 507.458 397.906Z" fill="#A2C7EB"/>
<path d="M581.843 328.498C561.176 344.4 541.541 361.979 523.237 381.015C500.994 404.132 480.015 429.917 452.898 445.338" stroke="#6F8BBF" stroke-miterlimit="10" stroke-linecap="round"/>
<path d="M488.733 416.942C515.877 392.766 552.757 382.155 584.858 389.275C557.646 416.062 518.43 427.869 488.733 416.942Z" fill="#A2C7EB"/>
<path d="M574.66 392.642C546.62 401.219 518.47 409.122 490.226 416.365" stroke="#6F8BBF" stroke-miterlimit="10" stroke-linecap="round"/>
<path d="M468.826 439.758C498.958 420.956 538.228 422.152 561.882 442.589C529.727 460.017 490.362 458.821 468.826 439.758Z" fill="#A2C7EB"/>
<path d="M554.482 441.49C524.391 445.475 494.205 444.706 465.268 439.194" stroke="#6F8BBF" stroke-miterlimit="10" stroke-linecap="round"/>
<path d="M494.68 408.544C514.247 380.67 521.186 342.64 512.428 311.248C490.987 337.61 482.432 376.245 494.68 408.544Z" fill="#A2C7EB"/>
<path d="M510.839 319.934C501.66 350.089 496.242 379.804 494.748 410.646" stroke="#6F8BBF" stroke-miterlimit="10" stroke-linecap="round"/>
<path d="M473.09 429.985C484.931 397.466 482.568 360.604 466.898 333.555C460.679 350.804 457.718 368.851 457.976 386.636C458.262 407.06 465.051 423.113 473.09 429.985Z" fill="#A2C7EB"/>
<path d="M467.414 341.5C464.589 371.916 466.613 402.291 473.348 430.906" stroke="#6F8BBF" stroke-miterlimit="10" stroke-linecap="round"/>
<path d="M103.753 332.327C89.2312 287.37 48.7076 251.046 1.56567 240.737C21.3855 279.63 57.333 310.583 103.753 332.327Z" fill="#A2C7EB"/>
<path d="M106.212 339.301C74.403 321.094 34.5489 317.079 0 328.588C32.0449 344.79 70.0143 349.304 106.212 339.301Z" fill="#A2C7EB"/>
<path d="M115.009 349.049C80.6316 344.226 44.6312 352.804 16.7115 372.465C48.3708 384.113 86.3524 376.56 115.009 349.049Z" fill="#A2C7EB"/>
<path d="M125.729 370.346C91.6848 370.203 58.2128 386.58 38.2029 413.171C53.3542 416.244 69.4439 414.406 83.3433 408.036C97.2427 401.663 108.888 390.789 125.729 370.346Z" fill="#A2C7EB"/>
<path d="M149.729 405.978C116.161 400.153 80.3941 410.681 56.1897 433.517C70.6377 439.071 86.8142 439.959 101.595 436.013C116.377 432.068 129.686 423.306 149.729 405.978Z" fill="#A2C7EB"/>
<path d="M113.488 334.455C91.3222 304.214 85.3068 263.462 97.8999 228.793C107.516 245.277 115.815 262.705 119.687 281.229C123.56 299.755 122.808 319.506 113.488 334.455Z" fill="#A2C7EB"/>
<path d="M127.031 363.634C121.781 331.504 132.635 297.451 155.56 274.182C158.199 307.422 148.15 341.285 127.031 363.634Z" fill="#A2C7EB"/>
<path d="M11.8857 248.793C79.3513 292.485 132.114 357.609 159.965 431.6" stroke="#6F8BBF" stroke-miterlimit="10" stroke-linecap="round"/>
<path d="M99.9952 244.737C108.201 278.464 113.194 312.898 114.883 347.433" stroke="#6F8BBF" stroke-miterlimit="10" stroke-linecap="round"/>
<path d="M150.52 287.226C147.831 314.437 139.523 341.032 126.251 364.987" stroke="#6F8BBF" stroke-miterlimit="10" stroke-linecap="round"/>
<path d="M14.2007 329.374C45.1308 335.326 76.5687 338.553 108.012 339.028" stroke="#6F8BBF" stroke-miterlimit="10" stroke-linecap="round"/>
<path d="M32.8394 369.793C61.3592 367.695 89.4173 360.702 115.353 349.215" stroke="#6F8BBF" stroke-miterlimit="10" stroke-linecap="round"/>
<path d="M49.9257 408.316C76.2416 395.03 102.56 381.727 128.876 368.44" stroke="#6F8BBF" stroke-miterlimit="10" stroke-linecap="round"/>
<path d="M67.0419 431.78C101.401 425.07 111.609 417.062 149.743 405.981" stroke="#6F8BBF" stroke-miterlimit="10" stroke-linecap="round"/>
<path d="M284.56 368.082C284.56 368.082 287.534 395.666 290.86 397.879C296.808 401.851 365.653 411.032 365.653 411.032L363.399 429.161C363.399 429.161 269.107 437.738 265.101 432.968C258.149 424.694 245.928 384.781 245.928 384.781L284.56 368.082Z" fill="#E06A58"/>
<path d="M239.098 297.065L246.715 278.551C246.715 278.551 267.383 288.378 274.199 300.515C281.491 313.489 290.412 382.472 290.412 382.472C290.412 382.472 253.926 390.98 247.218 387.365C240.51 383.75 239.098 297.065 239.098 297.065Z" fill="#F2AE30"/>
<path d="M181.075 211.136C175.738 209.156 170.09 207.425 164.373 207.864C158.656 208.304 152.817 211.369 150.875 216.455C149.49 220.056 150.129 224.303 147.942 227.546C145.851 230.652 141.696 231.944 137.813 232.206C133.915 232.48 129.991 231.958 126.121 232.467C114.172 234.075 105.644 247.214 109.568 257.976C111.13 262.264 114.335 266.36 113.601 270.827C112.827 275.61 107.871 278.757 105.834 283.197C103.132 289.107 106.364 296.268 111.7 300.295C117.037 304.308 123.976 305.834 130.711 306.851C139.985 308.253 149.558 308.912 158.724 306.933C167.89 304.954 176.648 300.061 181.387 292.419C183.492 289.038 184.768 285.217 187.213 282.042C192.264 275.486 201.213 272.944 208.26 268.298C215.959 263.199 221.608 253.276 217.073 245.51C212.7 238.047 201.321 236.384 196.759 229.031C194.871 225.993 194.423 222.378 193.201 219.066C191.952 215.74 188.964 214.063 181.075 211.136Z" fill="#0A2240"/>
<path d="M212.171 302.686C213.515 304.253 215.104 305.971 217.304 306.122C219.626 306.287 221.567 304.624 223.061 303.016C230.774 294.755 235.866 284.612 237.93 274.153C236.015 273.053 234.169 271.995 232.498 271.005C230.95 270.071 229.783 268.765 229.117 267.239C228.656 266.112 228.493 264.93 228.615 263.693C229.701 253.358 230.665 247.599 234.25 237.112C217.222 233.222 201.158 228.604 191.925 220.797C190.797 225.608 189.467 235.023 186.629 244.355C183.601 254.237 178.875 264.009 170.864 268.215C186.588 277.616 200.615 289.299 212.171 302.686Z" fill="#F9A07B"/>
<path d="M228.615 263.707C228.492 264.944 228.655 266.14 229.117 267.253C219.042 279.623 196.514 263.46 186.629 244.369C189.467 235.036 190.797 225.622 191.924 220.811C201.145 228.618 217.222 233.25 234.25 237.126C230.665 247.612 229.701 253.358 228.615 263.707Z" fill="#E06A58"/>
<path d="M256.669 413.245C254.442 428.171 270.356 444.238 270.75 452.21C236.952 452.21 166.152 454.299 130.1 449.338C128.457 440.129 146.259 419.416 146.259 398.965C146.259 396.257 146.15 393.288 145.933 390.1C145.362 380.973 144.032 370.115 142.552 358.983C138.532 329.116 133.182 297.175 137.134 290.55C144.874 277.644 162.974 268.875 171.95 265.109C175.032 263.817 177.042 263.116 177.191 263.034C188.448 282.468 211.356 299.044 220.006 298.302C222.409 298.109 229.538 295.594 234.25 271.583C236.083 272.641 237.916 273.617 239.736 274.565C248.684 279.279 257.076 283.169 259.493 289.23C265.875 305.187 272.135 345.417 270.75 359.725C269.352 374.156 263.621 385.179 259.602 399.666C258.665 403.061 257.809 406.662 257.117 410.537C256.94 411.403 256.805 412.31 256.669 413.245Z" fill="#FFC73C"/>
<path d="M270.75 452.21C236.952 452.21 166.152 454.299 130.1 449.338C128.457 440.129 146.259 419.416 146.259 398.965C146.259 396.257 146.15 393.289 145.933 390.1C145.362 380.974 144.032 370.116 142.552 358.983C148.947 365.814 158.276 336.951 162.404 345.403C184.741 391.034 202.353 403.033 232.96 403.033C242.085 403.033 250.504 401.755 259.602 399.666C258.665 403.061 257.809 406.662 257.117 410.538C256.954 411.417 256.805 412.324 256.669 413.259C254.442 428.158 270.356 444.225 270.75 452.21Z" fill="#FFBB33"/>
<path d="M239.736 274.565C238.283 285.244 233.978 299.635 221.459 303.428C204.539 308.555 180.057 276.558 171.95 265.109C175.032 263.817 177.042 263.116 177.191 263.034C188.448 282.468 211.356 299.044 220.006 298.302C222.409 298.109 229.538 295.594 234.25 271.583C236.083 272.627 237.916 273.603 239.736 274.565Z" fill="#FCE172"/>
<path d="M246.688 436.143L246.566 448.06L457.039 449.324L457.474 435.813L246.688 436.143Z" fill="#325F73"/>
<path d="M548.263 329.83L543.578 325.02L390.272 324.003L313.361 436.582L317.38 439.854L548.263 329.83Z" fill="#325F73"/>
<path d="M393.232 328.168L317.38 439.855L462.267 440.583L548.263 329.832L393.232 328.168Z" fill="#0B2D50"/>
<path d="M429.841 399.46C439.155 399.46 446.706 395.638 446.706 390.924C446.706 386.21 439.155 382.389 429.841 382.389C420.527 382.389 412.976 386.21 412.976 390.924C412.976 395.638 420.527 399.46 429.841 399.46Z" fill="#3C738C"/>
<path d="M249.801 217.916C252.19 204.938 260.981 195.712 269.438 197.306C277.895 198.902 282.814 210.714 280.424 223.691C278.034 236.668 269.243 245.895 260.786 244.301C252.33 242.706 247.412 230.893 249.801 217.916Z" fill="#56C4F9"/>
<path d="M280.446 182.96C278.87 194.257 273.887 206.71 266.622 220.468C264.069 209.197 262.44 195.467 260.186 181.736C257.891 167.978 254.971 154.22 249.907 142.977C248.766 140.49 247.53 138.112 246.186 135.913C249.187 135.624 252.229 135.913 255.121 136.724C259.643 137.947 263.879 140.311 267.342 143.472C273.099 148.654 276.956 155.718 279.251 163.168C281.138 169.353 281.478 175.922 280.446 182.96Z" fill="#0B2D50"/>
<path d="M271.918 194.642C271.836 196.868 271.687 199.136 271.483 201.39C268.387 237.95 253.22 263.034 230.013 263.034C197.247 263.034 176.01 225.841 176.01 189.405C176.01 153.464 197.763 127.446 223.224 130.456C237.903 132.16 248.63 137.095 256.248 144.324C261.286 149.135 264.925 154.948 267.41 161.559C270.248 168.968 271.619 177.352 271.904 186.382C271.904 186.409 271.931 186.437 271.931 186.464C272.04 189.13 272.013 191.852 271.918 194.642Z" fill="#F9A07B"/>
<path d="M271.918 194.642C270.94 191.109 269.487 187.66 267.505 184.567C248.182 194.793 225.152 198.737 203.317 194.999C199.162 198.504 195.102 201.954 191.015 205.403C191.096 188.773 191.327 177.516 197.736 169.462C203.752 161.903 213.787 159.058 223.292 157.821C233.992 156.405 244.869 156.46 255.542 158.027C259.629 158.604 263.866 159.498 267.423 161.587C270.261 168.995 271.633 177.379 271.918 186.409C271.918 186.436 271.945 186.464 271.945 186.491C272.04 189.13 272.013 191.852 271.918 194.642Z" fill="#E06A58"/>
<path d="M276.643 172.129C272.149 175.978 266.513 179.166 260.186 181.75C242.18 189.103 218.784 191.536 200.547 190.643C191.585 210.572 187.959 217.719 185.665 235.105C176.906 226.79 169.777 211.561 167.659 199.59C165.568 187.66 165.771 175.139 169.058 163.415C174.231 144.929 187.28 135.033 196.324 130.223C198.578 128.972 200.615 128.106 202.19 127.474C213.746 122.952 226.768 123.364 238.622 127.034C245.086 129.068 250.531 132.504 255.107 136.738C264.354 145.19 270.071 156.639 273.765 165.216C274.932 167.841 275.869 170.219 276.643 172.129Z" fill="#0B2D50"/>
<path d="M280.445 182.96C279.699 178.96 278.585 175.084 277.01 171.346C276.127 169.229 275.041 167.181 273.778 165.202C269.664 158.66 263.676 153.272 256.438 150.894C254.374 147.967 252.201 145.328 249.92 142.991C241.705 134.539 232.064 129.701 221.852 128.01C213.352 126.622 204.512 127.405 196.351 130.209C198.605 128.958 200.642 128.092 202.217 127.46C213.773 122.938 226.795 123.351 238.65 127.02C245.113 129.055 250.558 132.491 255.134 136.724C259.656 137.947 263.893 140.311 267.355 143.472C273.113 148.654 276.969 155.718 279.264 163.168C281.138 169.353 281.477 175.923 280.445 182.96Z" fill="#225570"/>
<path d="M210.989 205.377C217.045 201.872 223.333 200.292 232.145 203.549" stroke="#0B2D50" stroke-width="2" stroke-miterlimit="10" stroke-linecap="round"/>
<path d="M252.459 205.129C257.647 201.212 265.332 200.813 269.338 205.129" stroke="#0B2D50" stroke-width="2" stroke-miterlimit="10" stroke-linecap="round"/>
<path d="M246.2 225.113C246.729 227.89 246.444 234.033 245.14 236.796" stroke="#CC454E" stroke-width="2" stroke-miterlimit="10" stroke-linecap="round"/>
<path d="M225.736 226.983C227.116 226.983 228.235 225.198 228.235 222.997C228.235 220.796 227.116 219.011 225.736 219.011C224.356 219.011 223.238 220.796 223.238 222.997C223.238 225.198 224.356 226.983 225.736 226.983Z" fill="#262D40"/>
<path d="M258.393 225.127C259.773 225.127 260.892 223.342 260.892 221.141C260.892 218.94 259.773 217.155 258.393 217.155C257.013 217.155 255.895 218.94 255.895 221.141C255.895 223.342 257.013 225.127 258.393 225.127Z" fill="#262D40"/>
<path d="M243.104 242.225C243.104 242.225 242.615 243.187 241.678 244.493C240.211 246.486 237.713 249.235 234.304 250.307H234.291C232.851 250.774 231.29 250.939 229.552 250.623C224.446 249.702 223.102 244.933 222.857 241.263C222.803 240.548 222.803 239.889 222.817 239.284C222.844 237.8 223.007 236.81 223.007 236.81C231.141 241.346 243.104 242.225 243.104 242.225Z" fill="#CC454E"/>
<path d="M243.104 242.225C243.104 242.225 242.615 243.187 241.678 244.493C237.523 244.438 229.022 242.28 222.817 239.284C222.844 237.8 223.007 236.81 223.007 236.81C231.141 241.346 243.104 242.225 243.104 242.225Z" fill="white"/>
<path d="M234.291 250.293C232.851 250.761 231.29 250.925 229.552 250.609C224.446 249.689 223.102 244.919 222.857 241.25C225.329 241.552 227.719 242.514 229.701 244.04C231.779 245.648 233.367 247.833 234.291 250.293Z" fill="#E8729B"/>
<path d="M185.746 199.067C185.746 199.067 185.461 181.928 192.508 164.899C201.348 143.527 219.368 134.387 236.844 133.768C257.905 133.012 271.09 147.32 271.09 147.32C271.09 147.32 264.232 135.074 250.708 131.555C241.827 129.246 228.425 128.875 217.67 133.301C206.59 137.85 192.78 150.481 187.783 163.827C182.8 177.173 180.369 197.954 180.369 197.954L185.746 199.067Z" fill="#3D86E0"/>
<path d="M185.385 243.682C194.403 242.733 200.562 230.752 199.141 216.922C197.721 203.091 189.259 192.649 180.241 193.598C171.223 194.547 165.064 206.528 166.485 220.358C167.905 234.189 176.367 244.631 185.385 243.682Z" fill="#56C4F9"/>
<path d="M175.672 201.707C181.493 200.822 187.461 208.508 189 218.874C190.538 229.24 187.067 238.362 181.245 239.247C175.423 240.132 169.456 232.446 167.917 222.08C166.379 211.714 169.851 202.592 175.672 201.707Z" fill="#3D86E0"/>
<path d="M236.979 263.542C241.809 263.542 245.724 261.074 245.724 258.03C245.724 254.986 241.809 252.519 236.979 252.519C232.15 252.519 228.235 254.986 228.235 258.03C228.235 261.074 232.15 263.542 236.979 263.542Z" fill="#3A92C9"/>
<path d="M193.052 239.599C193.052 239.599 205.897 256.312 228.235 258.03" stroke="#3A92C9" stroke-width="2" stroke-miterlimit="10" stroke-linecap="round"/>
<path d="M246.566 404.325L245.724 426.302C245.724 426.302 167.197 450.121 154.229 442.589C147.902 438.905 141.995 418.646 137.582 398.868C132.965 378.087 130.005 357.855 130.005 357.855L176.037 348.729C176.037 348.729 176.064 377.138 177.626 393.563C178.183 399.679 178.984 404.132 180.057 404.861C184.117 407.568 246.566 404.325 246.566 404.325Z" fill="#F9A07B"/>
<path d="M177.626 393.536C169.261 396.285 153.116 400.532 137.582 398.855C132.965 378.074 130.005 357.842 130.005 357.842L176.037 348.716C176.037 348.702 176.064 377.112 177.626 393.536Z" fill="#E06A58"/>
<path d="M244.326 404.546C256.004 402.017 275.774 395.942 283.976 393.853C289.801 392.368 304.969 400.313 308.975 407.803C310.727 411.074 312.383 429.602 306.313 427.691C303.272 426.729 303.774 418.785 302.824 415.541C302.05 412.902 299.578 410.346 295.817 408.147C298.329 414.483 298.234 420.008 297.962 426.853C297.908 428.365 297.813 429.945 297.093 431.251C296.36 432.557 294.785 433.491 293.427 432.914C292.042 432.337 291.567 430.591 291.254 429.066C290.182 423.788 289.095 418.51 288.661 412.545C288.769 418.414 288.647 424.296 288.281 430.151C288.009 434.632 285.809 437.092 283.107 436.309C281.899 435.965 281.41 434.838 280.894 433.354C280.079 436.226 278.042 439.401 275.408 438.192C273.805 437.463 272.814 431.608 273.099 425.588C268.048 428.763 262.345 430.11 255.773 430.413C249.879 430.687 243.85 429.574 240.306 425.52C240.659 419.184 242.723 409.81 244.326 404.546Z" fill="#F9A07B"/>
<path d="M281.016 432.447C281.41 427.692 281.002 422.867 279.807 418.277" stroke="#CC454E" stroke-miterlimit="10" stroke-linecap="round"/>
<path d="M170.864 302.631C167.523 293.106 155.289 273.617 155.289 273.617C155.289 273.617 136.618 281.478 129.991 294.824C118.775 317.42 124.478 382.293 124.478 382.293C139.591 388.698 169.927 388.794 182.84 386.952C182.84 386.952 177.558 321.667 170.864 302.631Z" fill="#FFC73C"/>
<path d="M173.24 306.616C178.332 331.287 181.061 354.295 181.93 376.836" stroke="#F2AE30" stroke-miterlimit="10" stroke-linecap="round"/>
<path d="M572.868 445.406H37.4778V458.999H572.868V445.406Z" fill="#0B2D50"/>
</svg>
