<svg width="41" height="43" viewBox="0 0 41 43" fill="none" xmlns="http://www.w3.org/2000/svg">
<path d="M33.2101 23.2915C32.8343 23.2915 32.4414 23.1661 32.0655 23.0765C31.3044 22.9006 30.5565 22.6671 29.8276 22.3778C29.0351 22.0754 28.1639 22.0911 27.3818 22.4219C26.5997 22.7526 25.9618 23.3751 25.5909 24.1694L25.2151 24.9757C23.5512 24.0049 22.0222 22.7992 20.6709 21.3924C19.3295 19.9752 18.1799 18.3716 17.2543 16.6265L17.9718 16.1249C18.7292 15.7359 19.3227 15.0669 19.6381 14.2466C19.9535 13.4264 19.9684 12.5127 19.6801 11.6815C19.4089 10.9155 19.1863 10.1314 19.0139 9.33445C18.9284 8.94028 18.8601 8.5282 18.8089 8.11612C18.6014 6.8541 17.9711 5.71124 17.0315 4.89334C16.092 4.07544 14.9048 3.63625 13.6839 3.65487H8.55886C7.82262 3.64762 7.09354 3.80682 6.42124 4.12165C5.74894 4.43648 5.14922 4.89953 4.66289 5.47929C4.17656 6.05905 3.81505 6.7419 3.60297 7.48135C3.39088 8.22081 3.33321 8.99951 3.43386 9.76445C4.34396 17.2704 7.61249 24.2445 12.7232 29.585C17.8339 34.9255 24.4954 38.3281 31.6555 39.2553H32.3047C33.5644 39.2572 34.7807 38.7725 35.7214 37.8936C36.2618 37.3867 36.6935 36.7652 36.988 36.0703C37.2825 35.3754 37.4331 34.6228 37.4297 33.8624V28.4874C37.4088 27.2428 36.9767 26.0445 36.2071 25.0969C35.4376 24.1493 34.3783 23.5112 33.2101 23.2915ZM34.0643 34.0415C34.064 34.2959 34.012 34.5473 33.9119 34.779C33.8117 35.0107 33.6657 35.2174 33.4834 35.3853C33.2926 35.5581 33.0694 35.6873 32.8281 35.7644C32.5869 35.8415 32.333 35.865 32.0826 35.8332C25.6847 34.9729 19.742 31.9032 15.1918 27.1083C10.6417 22.3135 7.74298 16.0663 6.95303 9.35237C6.92584 9.08992 6.94967 8.82442 7.02307 8.5719C7.09648 8.31938 7.21794 8.0851 7.38011 7.8832C7.5402 7.69208 7.73726 7.53891 7.95817 7.43388C8.17909 7.32885 8.4188 7.27435 8.66136 7.27403H13.7864C14.1836 7.26476 14.5716 7.40102 14.8834 7.65937C15.1952 7.91771 15.4113 8.28197 15.4947 8.68945C15.563 9.17917 15.6484 9.66292 15.7509 10.1407C15.9483 11.0852 16.2109 12.0133 16.5368 12.9178L14.1451 14.0824C13.9406 14.1808 13.7567 14.3206 13.6038 14.4937C13.451 14.6669 13.3323 14.87 13.2545 15.0914C13.1767 15.3128 13.1414 15.5482 13.1506 15.784C13.1598 16.0197 13.2133 16.2513 13.308 16.4653C15.7667 21.9886 20 26.4284 25.2664 29.007C25.6823 29.1862 26.1488 29.1862 26.5647 29.007C26.7777 28.927 26.9735 28.8035 27.1407 28.6436C27.3079 28.4836 27.4431 28.2905 27.5384 28.0753L28.5976 25.567C29.4808 25.8982 30.3821 26.1734 31.2968 26.3911C31.7523 26.4986 32.2136 26.5882 32.6805 26.6599C33.0691 26.7473 33.4164 26.974 33.6627 27.301C33.909 27.628 34.0389 28.0349 34.0301 28.4515L34.0643 34.0415Z" fill="#F82586"/>
</svg>
