<svg width="43" height="43" viewBox="0 0 43 43" fill="none" xmlns="http://www.w3.org/2000/svg">
<path d="M32.25 4.03125H10.75C8.96808 4.03125 7.25914 4.73912 5.99913 5.99913C4.73912 7.25914 4.03125 8.96808 4.03125 10.75V32.25C4.03125 34.0319 4.73912 35.7409 5.99913 37.0009C7.25914 38.2609 8.96808 38.9688 10.75 38.9688H21.5C21.8564 38.9688 22.1982 38.8272 22.4502 38.5752C22.7022 38.3232 22.8438 37.9814 22.8438 37.625V26.875C22.8438 26.5186 22.7022 26.1768 22.4502 25.9248C22.1982 25.6728 21.8564 25.5312 21.5 25.5312H20.1562V22.8438H21.5C21.8564 22.8438 22.1982 22.7022 22.4502 22.4502C22.7022 22.1982 22.8438 21.8564 22.8438 21.5V16.7969C22.8438 15.9059 23.1977 15.0514 23.8277 14.4214C24.4577 13.7914 25.3122 13.4375 26.2031 13.4375H29.5625V16.125H28.2188C27.506 16.125 26.8224 16.4081 26.3184 16.9122C25.8144 17.4162 25.5312 18.0997 25.5312 18.8125V21.5C25.5312 21.8564 25.6728 22.1982 25.9248 22.4502C26.1768 22.7022 26.5186 22.8438 26.875 22.8438H29.1862L28.5144 25.5312H26.875C26.5186 25.5312 26.1768 25.6728 25.9248 25.9248C25.6728 26.1768 25.5312 26.5186 25.5312 26.875V32.25C25.5312 32.6064 25.6728 32.9482 25.9248 33.2002C26.1768 33.4522 26.5186 33.5938 26.875 33.5938C27.2314 33.5938 27.5732 33.4522 27.8252 33.2002C28.0772 32.9482 28.2188 32.6064 28.2188 32.25V28.2188H29.5625C29.8695 28.2277 30.1702 28.1312 30.4147 27.9454C30.6592 27.7596 30.8327 27.4956 30.9062 27.1975L32.25 21.8225C32.3003 21.6242 32.3047 21.417 32.2628 21.2167C32.2209 21.0164 32.1338 20.8284 32.0081 20.6669C31.8774 20.5012 31.7096 20.3687 31.5182 20.28C31.3267 20.1913 31.1171 20.1489 30.9062 20.1562H28.2188V18.8125H30.9062C31.2626 18.8125 31.6044 18.6709 31.8564 18.4189C32.1084 18.1669 32.25 17.8251 32.25 17.4688V12.0938C32.25 11.7374 32.1084 11.3956 31.8564 11.1436C31.6044 10.8916 31.2626 10.75 30.9062 10.75H26.2031C24.6005 10.7535 23.0645 11.3918 21.9313 12.525C20.798 13.6582 20.1598 15.1942 20.1562 16.7969V20.1562H18.8125C18.4561 20.1562 18.1143 20.2978 17.8623 20.5498C17.6103 20.8018 17.4688 21.1436 17.4688 21.5V26.875C17.4688 27.2314 17.6103 27.5732 17.8623 27.8252C18.1143 28.0772 18.4561 28.2188 18.8125 28.2188H20.1562V36.2812H10.75C9.68085 36.2812 8.65548 35.8565 7.89948 35.1005C7.14347 34.3445 6.71875 33.3192 6.71875 32.25V10.75C6.71875 9.68085 7.14347 8.65548 7.89948 7.89948C8.65548 7.14347 9.68085 6.71875 10.75 6.71875H32.25C33.3192 6.71875 34.3445 7.14347 35.1005 7.89948C35.8565 8.65548 36.2812 9.68085 36.2812 10.75V32.25C36.2812 33.3192 35.8565 34.3445 35.1005 35.1005C34.3445 35.8565 33.3192 36.2812 32.25 36.2812H26.875C26.5186 36.2812 26.1768 36.4228 25.9248 36.6748C25.6728 36.9268 25.5312 37.2686 25.5312 37.625C25.5312 37.9814 25.6728 38.3232 25.9248 38.5752C26.1768 38.8272 26.5186 38.9688 26.875 38.9688H32.25C34.0319 38.9688 35.7409 38.2609 37.0009 37.0009C38.2609 35.7409 38.9688 34.0319 38.9688 32.25V10.75C38.9688 8.96808 38.2609 7.25914 37.0009 5.99913C35.7409 4.73912 34.0319 4.03125 32.25 4.03125Z" fill="#F82586"/>
</svg>
