<svg width="583" height="500" viewBox="0 0 583 500" fill="none" xmlns="http://www.w3.org/2000/svg">
<path d="M103.968 257.047C0.399952 308.33 0.402283 391.475 103.973 442.757C207.545 494.039 375.464 494.039 479.032 442.757C582.601 391.475 582.598 308.329 479.027 257.047C375.456 205.765 207.536 205.765 103.968 257.047Z" fill="#FAFAFA"/>
<path d="M253.438 464.197C281.07 464.197 303.47 453.106 303.47 439.423C303.47 425.741 281.07 414.649 253.438 414.649C225.806 414.649 203.406 425.741 203.406 439.423C203.406 453.106 225.806 464.197 253.438 464.197Z" fill="#E0E0E0"/>
<path d="M337.254 446.384C366.892 446.384 390.918 434.488 390.918 419.812C390.918 405.137 366.892 393.24 337.254 393.24C307.616 393.24 283.59 405.137 283.59 419.812C283.59 434.488 307.616 446.384 337.254 446.384Z" fill="#E0E0E0"/>
<path d="M86.755 408.32L75.8879 413.7C75.9812 408.61 75.5847 398.97 72.4365 386.44C65.2306 357.72 50.609 352.73 43.4847 341.55C35.999 329.79 45.6185 322.74 54.69 323.95C62.7937 325.02 75.6314 333.57 82.056 351.22C90.5328 374.49 88.4457 397.71 86.755 408.32Z" fill="#BA68C8"/>
<path opacity="0.5" d="M86.755 408.32L75.8879 413.7C75.9812 408.61 75.5847 398.97 72.4365 386.44C65.2306 357.72 50.609 352.73 43.4847 341.55C35.999 329.79 45.6185 322.74 54.69 323.95C62.7937 325.02 75.6314 333.57 82.056 351.22C90.5328 374.49 88.4457 397.71 86.755 408.32Z" fill="white"/>
<path d="M80.3642 406.045C80.0517 406.007 79.836 405.76 79.8803 405.492C85.6427 370.921 67.6676 341.135 53.0635 331.026C52.8186 330.855 52.7801 330.548 52.9772 330.337C53.1777 330.125 53.5345 330.094 53.7806 330.263C68.5934 340.518 86.8343 370.68 81.009 405.631C80.9647 405.898 80.6767 406.084 80.3642 406.045Z" fill="white"/>
<path d="M81.3098 411.02L75.8879 413.7L75.0018 414.14C73.2178 407.19 68.4489 399.94 59.4124 392.17C48.8134 383.06 34.0402 374.55 36.652 366.9C39.2522 359.25 51.1804 361.27 59.4124 365.8C67.1418 370.06 83.6069 385.77 81.3098 411.02Z" fill="#BA68C8"/>
<path opacity="0.65" d="M81.3098 411.02L75.8879 413.7L75.0018 414.14C73.2178 407.19 68.4489 399.94 59.4124 392.17C48.8134 383.06 34.0402 374.55 36.652 366.9C39.2522 359.25 51.1804 361.27 59.4124 365.8C67.1418 370.06 83.6069 385.77 81.3098 411.02Z" fill="white"/>
<path d="M78.4194 408.867C78.1524 408.834 77.9413 408.642 77.9308 408.402C77.1741 391.46 55.497 369.531 45.1744 365.933C44.8817 365.832 44.7418 365.546 44.8607 365.296C44.9773 365.045 45.3073 364.922 45.6035 365.027C56.4274 368.799 78.2853 390.756 79.0712 408.364C79.084 408.635 78.838 408.862 78.5232 408.872C78.4882 408.874 78.4543 408.872 78.4194 408.867Z" fill="white"/>
<path d="M121.565 460.122L215.652 337.594L152.187 306.169L58.1006 428.698L121.565 460.122Z" fill="#BA68C8"/>
<path opacity="0.2" d="M121.565 460.122L215.652 337.594L152.187 306.169L58.1006 428.698L121.565 460.122Z" fill="white"/>
<path d="M215.651 337.594L121.565 460.122L159.643 441.267L228.261 352.258L215.651 337.594Z" fill="#BA68C8"/>
<path opacity="0.2" d="M215.651 337.594L121.565 460.122L159.643 441.267L228.261 352.258L215.651 337.594Z" fill="black"/>
<path d="M386.389 71.9058L392.607 95.7728L418.164 108.598L411.804 84.4898L386.389 71.9058Z" fill="#BA68C8"/>
<path opacity="0.2" d="M386.389 71.9058L392.607 95.7728L418.164 108.598L411.804 84.4898L386.389 71.9058Z" fill="black"/>
<path d="M331.293 189.61L411.804 84.4899L386.389 71.9059L483.022 48.5249L500.624 128.47L475.268 115.915L394.756 221.035L331.293 189.61Z" fill="#BA68C8"/>
<path opacity="0.2" d="M331.293 189.61L411.804 84.4899L386.389 71.9059L483.022 48.5249L500.624 128.47L475.268 115.915L394.756 221.035L331.293 189.61Z" fill="white"/>
<path d="M475.268 115.915L394.798 221.034L409.05 234.926L481.727 140.063L507.016 152.592L500.624 128.47L475.268 115.915Z" fill="#BA68C8"/>
<path opacity="0.2" d="M475.268 115.915L394.798 221.034L409.05 234.926L481.727 140.063L507.016 152.592L500.624 128.47L475.268 115.915Z" fill="black"/>
<path d="M345.545 203.604L331.293 189.712L394.798 221.034L409.05 234.926L345.545 203.604Z" fill="#BA68C8"/>
<path opacity="0.4" d="M345.545 203.604L331.293 189.712L394.798 221.034L409.05 234.926L345.545 203.604Z" fill="black"/>
<path opacity="0.2" d="M481.727 140.063L475.269 115.915L500.624 128.47L507.016 152.592L481.727 140.063Z" fill="black"/>
<path d="M383.523 395.622C383.523 401.399 383.47 409.216 383.505 414.192C383.514 415.275 383.522 416.608 383.522 418.38C383.531 418.388 383.531 418.395 383.522 418.403C382.595 423.606 378.109 428.687 370.065 432.671C351.876 441.675 322.383 441.675 304.192 432.671C294.814 428.029 290.276 421.895 290.575 415.813V415.768C290.629 415.253 290.691 414.715 290.77 414.155C290.77 414.132 290.778 414.11 290.778 414.094C291.564 408.179 292.131 402.262 292.519 396.711C293.137 387.904 293.051 384.026 292.967 379.285C292.863 373.435 290.029 368.837 282.832 363.65C275.636 358.455 261.331 340.719 261.331 340.719L356.211 298.893L383.187 372.17C383.187 372.168 383.523 389.844 383.523 395.622Z" fill="#FFA8A7"/>
<path d="M356.94 283.73C356.94 283.73 355.149 289.894 346.671 281.74C338.193 273.586 324.323 261.122 309.707 249.131C302.7 243.383 274.628 224.015 255.792 209.38C249.792 204.071 241.265 200.353 235.405 204.216C229.544 208.079 229.527 217.569 233.219 222.273C236.486 226.437 243.486 232.218 248.831 236.37C248.797 236.621 248.765 236.868 248.73 237.121C247.719 244.687 245.913 253.197 245.056 262.373C244.545 267.836 236.863 274.724 236.967 280.335C239.227 288.304 251.573 296.91 260.304 302.889C269.035 308.868 272.836 311.302 272.738 313.189C272.586 316.083 258.447 305.56 252.157 301.856C252.507 319.029 239.712 321.096 239.712 321.096C241.634 324.402 252.545 331.683 268.054 348.712C274.177 355.434 336.488 311.197 336.488 311.197L351.284 303.051L361.697 288.276L356.94 283.73Z" fill="#FFA8A7"/>
<path d="M351.764 298.884C345.919 305.177 322.961 325.284 341.027 351.933C339.084 350.35 338.06 349.139 337.645 348.661C335.049 345.723 333.019 342.413 331.571 338.945C331.517 338.816 331.474 338.695 331.42 338.574C327.315 328.426 328.718 318.104 336.373 309.38C342.404 302.526 353.381 295.87 354.846 288.478C354.9 288.205 354.935 287.94 354.952 287.675C355.208 289.978 355.509 294.863 351.764 298.884Z" fill="#F28F8F"/>
<path opacity="0.5" d="M232.069 208.01C229.767 212.529 230.449 218.746 233.217 222.274C236.485 226.438 243.485 232.219 248.83 236.371C248.803 236.571 248.777 236.77 248.75 236.97C251.106 238.704 253.64 240.543 256.42 242.641C263.111 247.692 271.961 254.207 278.641 259.267C281.985 261.8 297.883 272.767 303.647 277.18C294.771 268.833 274.84 253.68 264.81 245.211C257.237 238.817 246.077 229.898 242.44 226.346C238.804 222.794 236.682 220.361 235.404 219.02C230.945 214.334 231.927 208.924 232.069 208.01Z" fill="#F28F8F"/>
<path d="M249.077 328.5C252.22 328.255 256.254 326.259 257.884 323.943C260.23 320.609 260.674 318.019 260.041 312.82C259.879 311.49 259.494 309.091 258.328 305.654C256.248 304.371 254.084 302.992 252.156 301.857C252.505 319.03 239.711 321.097 239.711 321.097C240.582 322.594 243.301 324.912 247.451 328.576C247.995 328.566 248.539 328.542 249.077 328.5Z" fill="#F28F8F"/>
<path d="M238.83 259.119C238.328 259.514 245.416 265.369 246.161 265.726C248.786 266.98 253.804 265.418 255.974 263.862C257.344 262.88 258.345 261.557 259.038 260.146C261.399 255.338 260.245 249.856 259.048 244.741C258.86 243.94 258.593 243.041 257.762 242.642C257.623 245.317 254.87 246.485 252.832 248.09C250.887 249.622 248.943 251.154 246.999 252.685C244.275 254.829 241.552 256.974 238.83 259.119Z" fill="#F28F8F"/>
<path d="M254.945 262.268L292.05 294.388L248.73 263.246L254.945 262.268Z" fill="#F28F8F"/>
<path d="M249.875 289.71C253.467 288.715 256.464 286.231 257.712 283.175C258.775 280.57 258.592 277.728 258.387 274.974C258.212 272.632 258.019 270.245 257.011 268.063L239.654 273.116C238.148 275.612 236.923 278.078 236.965 280.336C237.886 283.585 240.294 286.878 243.69 290.044C245.673 290.331 247.961 290.24 249.875 289.71Z" fill="#F28F8F"/>
<path d="M245.256 236.13C252.884 235.533 256.886 238.404 258.592 244.268C259.238 246.487 259.305 250.003 258.592 254.364C257.878 258.725 253.063 263.949 246.863 263.167C246.764 263.154 246.664 263.141 246.563 263.127C236.54 261.73 235.405 257.112 235.405 249.659C235.405 242.206 238.47 236.661 245.256 236.13Z" fill="#FFA8A7"/>
<path opacity="0.5" d="M254.262 237.858C254.814 238.268 258.049 240.985 258.078 248.506C258.109 256.728 253.3 258.433 247.991 259.165C242.682 259.897 235.522 257.063 235.522 252.945L235.518 252.946C235.977 258.477 238.108 261.948 246.564 263.126C246.665 263.14 246.765 263.153 246.864 263.166C253.064 263.948 257.88 258.723 258.593 254.363C259.307 250.002 259.239 246.485 258.593 244.267C257.755 241.39 256.36 239.238 254.262 237.858Z" fill="#F28F8F"/>
<path d="M245.429 262.337C252.396 261.792 256.052 264.414 257.611 269.771C258.2 271.798 258.263 275.01 257.611 278.994C256.959 282.977 252.56 287.75 246.897 287.035C246.806 287.023 246.715 287.011 246.623 286.999C237.467 285.723 236.43 281.505 236.43 274.696C236.43 267.887 239.23 262.822 245.429 262.337Z" fill="#FFA8A7"/>
<path opacity="0.5" d="M255.139 265.172C256.121 266.421 256.833 269.496 256.256 274.153C255.499 280.255 253.977 283.221 247.75 283.605C241.3 284.003 237.337 281.442 236.656 278.747C237.269 283.186 239.452 285.998 246.623 286.998C246.715 287.011 246.807 287.023 246.897 287.034C252.56 287.749 256.959 282.976 257.611 278.993C258.263 275.01 258.201 271.797 257.611 269.771C257.064 267.893 256.253 266.359 255.139 265.172Z" fill="#F28F8F"/>
<path d="M245.803 299.304C253.034 298.738 258.445 301.685 258.445 307.019V316.59C258.445 321.685 253.204 325.677 247.326 324.935C247.232 324.923 247.137 324.911 247.042 324.897C237.54 323.573 237.654 316.129 237.54 312.22C237.426 308.312 239.37 299.807 245.803 299.304Z" fill="#FFA8A7"/>
<path opacity="0.5" d="M254.924 301.008C258.082 303.844 256.852 309.614 256.609 315.305C256.44 319.253 254.043 322.525 247.751 322.525C241.458 322.525 238.639 319.227 237.785 315.999L237.781 315.992C238.302 319.72 240.119 323.932 247.042 324.897C247.137 324.91 247.233 324.923 247.326 324.935C253.204 325.676 258.445 321.685 258.445 316.59V307.019C258.445 304.388 257.124 302.342 254.924 301.008Z" fill="#F28F8F"/>
<path d="M165.652 297.42L321.187 196.285L384.692 227.709L229.117 328.845L165.652 297.42Z" fill="#BA68C8"/>
<path d="M384.693 227.709L398.945 241.6L241.727 343.509L229.117 328.845L384.693 227.709Z" fill="#BA68C8"/>
<path opacity="0.2" d="M384.693 227.709L398.945 241.6L241.727 343.509L229.117 328.845L384.693 227.709Z" fill="black"/>
<path d="M165.652 297.423L178.263 312.087L241.727 343.509L229.117 328.845L165.652 297.423Z" fill="#BA68C8"/>
<path opacity="0.4" d="M165.652 297.423L178.263 312.087L241.727 343.509L229.117 328.845L165.652 297.423Z" fill="black"/>
<path d="M383.185 372.169C383.185 357.987 384.39 338.957 387.126 322.551C389.861 306.145 389.333 292.102 388.496 288.135C387.659 284.168 387.422 278.402 380.283 271.084C376.919 267.635 369.54 262.606 363.387 256.409C357.179 250.156 351.386 243.213 348.102 239.416C344.818 235.619 336.663 241.732 337.059 253.838C337.383 263.727 345.263 272.38 348.309 276.078C352.022 280.59 354.661 284.948 354.957 287.669C355.208 289.972 355.511 294.851 351.765 298.885C345.922 305.177 322.96 325.284 341.03 351.934V376.384L383.185 372.169Z" fill="#FFA8A7"/>
<path d="M349.577 246.818C349.577 246.818 356.585 254.971 358.824 256.019C361.061 257.067 361.699 254.677 361.699 254.677L361.691 254.666C358.473 250.788 352.469 243.734 348.101 239.416C348.663 240.229 349.945 243.212 349.577 246.818Z" fill="#FFA8A7"/>
<path opacity="0.6" d="M349.577 246.818C349.577 246.818 356.584 254.974 358.824 256.019C360.918 256.996 361.699 254.677 361.699 254.677L361.691 254.666C358.473 250.788 352.469 243.734 348.101 239.416C348.663 240.229 349.945 243.212 349.577 246.818Z" fill="white"/>
<path d="M361.699 254.677L361.691 254.666C361.699 254.677 361.017 253.751 360.65 253.417C360.969 255.328 359.353 256.213 359.353 256.213C361.196 256.676 361.699 254.677 361.699 254.677Z" fill="#F28F8F"/>
<path d="M292.893 430.154C290.898 427.267 287.581 424.555 282.93 422.252C266.642 414.187 240.233 414.187 223.944 422.252C219.293 424.555 215.976 427.267 213.981 430.154H211.728V437.463H211.757C212.057 442.544 216.111 447.581 223.944 451.459C240.232 459.524 266.641 459.524 282.93 451.459C290.762 447.581 294.846 442.544 295.146 437.462V437.463V430.154H292.893Z" fill="#BA68C8"/>
<path opacity="0.25" d="M292.893 430.154C290.898 427.267 287.581 424.555 282.93 422.252C266.642 414.187 240.233 414.187 223.944 422.252C219.293 424.555 215.976 427.267 213.981 430.154H211.728V437.463H211.757C212.057 442.544 216.111 447.581 223.944 451.459C240.232 459.524 266.641 459.524 282.93 451.459C290.762 447.581 294.846 442.544 295.146 437.462V437.463V430.154H292.893Z" fill="black"/>
<path opacity="0.1" d="M253.441 416.203C242.766 416.203 232.09 418.219 223.946 422.252C219.295 424.555 215.977 427.267 213.983 430.154H211.729V437.463H211.759C212.059 442.544 216.114 447.581 223.946 451.459C232.09 455.492 242.766 457.508 253.441 457.508V416.203Z" fill="black"/>
<path opacity="0.1" d="M230.659 419.556C228.285 420.324 226.031 421.22 223.947 422.252C219.295 424.555 215.978 427.267 213.984 430.154H211.73V437.463H211.76C212.06 442.544 216.115 447.581 223.947 451.459C226.031 452.491 228.286 453.387 230.659 454.155V419.556Z" fill="black"/>
<path opacity="0.5" d="M276.217 419.556C278.591 420.324 280.845 421.22 282.93 422.252C287.581 424.555 290.898 427.267 292.892 430.154H295.146V437.463V437.462C294.845 442.543 290.762 447.58 282.93 451.459C280.845 452.491 278.59 453.387 276.217 454.155V419.556Z" fill="#BA68C8"/>
<path d="M223.945 415.553C207.656 423.618 207.659 436.695 223.945 444.76C238.197 451.817 260.196 452.7 276.386 447.408L276.389 447.407C276.604 447.336 276.819 447.265 277.035 447.191C279.108 446.484 281.084 445.675 282.931 444.76C296.514 438.034 298.771 427.825 289.697 419.941C289.695 419.938 289.693 419.937 289.693 419.937C287.889 418.368 285.634 416.892 282.93 415.553C266.644 407.489 240.234 407.488 223.945 415.553Z" fill="#BA68C8"/>
<path opacity="0.2" d="M223.945 415.553C207.656 423.618 207.659 436.695 223.945 444.76C238.197 451.817 260.196 452.7 276.386 447.408L276.389 447.407C276.604 447.336 276.819 447.265 277.035 447.191C279.108 446.484 281.084 445.675 282.931 444.76C296.514 438.034 298.771 427.825 289.697 419.941C289.695 419.938 289.693 419.937 289.693 419.937C287.889 418.368 285.634 416.892 282.93 415.553C266.644 407.489 240.234 407.488 223.945 415.553Z" fill="black"/>
<path opacity="0.5" d="M289.697 419.941C289.872 420.11 295.569 425.265 294.059 432.683C292.617 439.781 281.028 445.755 277.035 447.191C279.108 446.484 281.084 445.675 282.931 444.76C296.514 438.033 298.771 427.824 289.697 419.941Z" fill="#F5F5F5"/>
<path opacity="0.5" d="M217.179 440.373C217.004 440.204 211.307 435.049 212.817 427.632C214.259 420.534 225.848 414.56 229.843 413.124C227.77 413.831 225.793 414.64 223.947 415.555C210.364 422.28 208.106 432.49 217.179 440.373Z" fill="#F5F5F5"/>
<path d="M280.868 443.704C296.01 436.207 296.01 424.051 280.868 416.554C265.727 409.057 241.178 409.057 226.036 416.554C210.894 424.051 210.894 436.207 226.036 443.704C241.178 451.201 265.727 451.201 280.868 443.704Z" fill="#BA68C8"/>
<path opacity="0.4" d="M280.868 443.704C296.01 436.207 296.01 424.051 280.868 416.554C265.727 409.057 241.178 409.057 226.036 416.554C210.894 424.051 210.894 436.207 226.036 443.704C241.178 451.201 265.727 451.201 280.868 443.704Z" fill="white"/>
<path opacity="0.2" d="M290.463 435.862C293.58 430.922 292.563 425.476 287.419 420.857C286.467 420.003 285.37 419.178 284.134 418.39C283.176 417.774 282.125 417.182 280.995 416.616C280.376 416.305 279.741 416.009 279.085 415.728C280.697 418.002 280.107 420.439 270.975 420.896C253.104 421.791 275.751 436.437 275.751 436.437C275.751 436.437 287.269 431.667 290.463 435.862Z" fill="white"/>
<path opacity="0.5" d="M288.62 431.811C291.302 431.553 292.631 429.188 291.588 426.528C290.546 423.868 287.527 421.92 284.845 422.178C282.164 422.436 280.834 424.801 281.877 427.461C282.919 430.121 285.938 432.068 288.62 431.811Z" fill="white"/>
<path d="M260.355 444.017C259.475 438.326 230.467 422.57 230.467 422.57C230.467 422.57 224.034 420.356 226.17 416.5C225.055 417.049 224.02 417.623 223.069 418.22C222.398 418.635 221.771 419.061 221.185 419.5C212.549 425.913 212.538 434.337 221.188 440.758C221.771 441.195 222.402 441.623 223.069 442.04C223.959 442.596 224.913 443.13 225.945 443.645C226.929 444.14 227.958 444.598 229.019 445.026C229.864 445.369 230.743 445.692 231.633 445.992C232.519 446.293 233.426 446.573 234.352 446.833C237.109 447.609 240.018 448.201 243.006 448.616C243.651 448.704 244.304 448.786 244.953 448.858C247.804 449.172 250.702 449.329 253.608 449.324C257.173 449.318 260.738 449.07 264.194 448.579C264.191 448.577 259.525 447.76 260.355 444.017Z" fill="#BA68C8"/>
<path opacity="0.3" d="M260.355 444.017C259.475 438.326 230.467 422.57 230.467 422.57C230.467 422.57 224.034 420.356 226.17 416.5C225.055 417.049 224.02 417.623 223.069 418.22C222.398 418.635 221.771 419.061 221.185 419.5C212.549 425.913 212.538 434.337 221.188 440.758C221.771 441.195 222.402 441.623 223.069 442.04C223.959 442.596 224.913 443.13 225.945 443.645C226.929 444.14 227.958 444.598 229.019 445.026C229.864 445.369 230.743 445.692 231.633 445.992C232.519 446.293 233.426 446.573 234.352 446.833C237.109 447.609 240.018 448.201 243.006 448.616C243.651 448.704 244.304 448.786 244.953 448.858C247.804 449.172 250.702 449.329 253.608 449.324C257.173 449.318 260.738 449.07 264.194 448.579C264.191 448.577 259.525 447.76 260.355 444.017Z" fill="white"/>
<path d="M233.014 420.014C222.194 425.372 221.755 433.92 231.694 439.539C232.117 439.777 232.56 440.013 233.019 440.241C244.3 445.827 262.583 445.827 273.864 440.241C285.145 434.656 285.149 425.6 273.868 420.015C273.408 419.787 272.931 419.568 272.45 419.359C261.102 414.437 243.835 414.657 233.014 420.014Z" fill="#BA68C8"/>
<path opacity="0.2" d="M233.014 420.014C222.194 425.372 221.755 433.92 231.694 439.539C232.117 439.777 232.56 440.013 233.019 440.241C244.3 445.827 262.583 445.827 273.864 440.241C285.145 434.656 285.149 425.6 273.868 420.015C273.408 419.787 272.931 419.568 272.45 419.359C261.102 414.437 243.835 414.657 233.014 420.014Z" fill="black"/>
<path d="M253.454 443.799C268.703 443.799 281.064 437.678 281.064 430.128C281.064 422.578 268.703 416.457 253.454 416.457C238.206 416.457 225.845 422.578 225.845 430.128C225.845 437.678 238.206 443.799 253.454 443.799Z" fill="#BA68C8"/>
<path opacity="0.5" d="M253.454 443.799C268.703 443.799 281.064 437.678 281.064 430.128C281.064 422.578 268.703 416.457 253.454 416.457C238.206 416.457 225.845 422.578 225.845 430.128C225.845 437.678 238.206 443.799 253.454 443.799Z" fill="black"/>
<path d="M233.931 424.274C244.713 418.935 262.195 418.935 272.978 424.274C277.388 426.457 279.991 429.195 280.793 432.034C279.99 434.873 277.386 437.611 272.978 439.794C262.196 445.133 244.714 445.133 233.932 439.794C229.522 437.611 226.918 434.873 226.116 432.034C226.918 429.195 229.522 426.457 233.931 424.274Z" fill="#BA68C8"/>
<path opacity="0.35" d="M233.931 424.274C244.713 418.935 262.195 418.935 272.978 424.274C277.388 426.457 279.991 429.195 280.793 432.034C279.99 434.873 277.386 437.611 272.978 439.794C262.196 445.133 244.714 445.133 233.932 439.794C229.522 437.611 226.918 434.873 226.116 432.034C226.918 429.195 229.522 426.457 233.931 424.274Z" fill="black"/>
<path d="M270.84 434.246C270.837 433.785 270.847 431.904 270.842 431.42C270.831 430.261 269.906 429.137 267.894 428.127C267.872 428.113 267.846 428.1 267.824 428.089C264.116 426.253 260.286 426.493 256.873 427.23C256.863 427.232 256.855 427.232 256.844 427.234C255.394 427.548 254.015 427.952 252.757 428.322C251.019 428.84 249.593 429.261 248.372 429.486C248.368 429.488 248.368 429.488 248.365 429.49C247.602 429.629 246.918 429.694 246.28 429.66C245.67 429.629 245.104 429.499 244.553 429.267C244.6 429.24 244.642 429.212 244.691 429.185C244.826 429.107 244.972 429.031 245.125 428.956C245.511 428.765 245.894 428.6 246.28 428.463C248.43 427.683 250.501 427.719 252.419 428.344L255.959 425.281V422.471C252.813 421.556 249.544 421.46 246.28 422.17C245.252 422.394 244.224 422.701 243.203 423.083L239.663 421.33L235.438 423.422V426.232L236.885 426.948C236.471 427.499 236.261 428.048 236.263 428.587C236.265 429.054 236.269 430.921 236.268 431.392C236.264 432.553 237.238 433.672 239.276 434.681C241.244 435.656 243.202 436.062 245.108 436.122L245.112 436.12C245.498 436.135 245.892 436.131 246.278 436.116C248.487 436.026 250.605 435.519 252.544 434.955C252.959 434.836 253.364 434.715 253.764 434.595L250.2 437.659V440.469C255.23 442.198 260.142 441.377 263.853 439.962L267.349 441.693L271.573 439.601V436.791L270.122 436.073C270.598 435.462 270.843 434.849 270.84 434.246ZM261.931 434.004C261.607 434.164 261.278 434.305 260.951 434.425C258.439 435.347 255.851 435.15 254.043 434.513C257.351 433.513 260.114 432.637 262.468 433.712C262.302 433.81 262.126 433.908 261.931 434.004Z" fill="#BA68C8"/>
<path d="M256.874 427.23C256.864 427.232 256.856 427.232 256.845 427.234C255.395 427.548 254.016 427.952 252.758 428.322C251.02 428.84 249.594 429.261 248.373 429.486C248.369 429.488 248.369 429.488 248.366 429.49C247.603 429.629 246.919 429.694 246.281 429.66C245.566 429.624 244.91 429.461 244.272 429.146C242.913 428.473 242.715 427.487 244.692 426.375C244.827 426.297 244.973 426.222 245.126 426.146C245.512 425.955 245.895 425.79 246.281 425.653C248.431 424.873 250.502 424.909 252.42 425.534L255.96 422.471C252.814 421.556 249.544 421.46 246.281 422.17C245.253 422.394 244.225 422.701 243.204 423.083L239.664 421.33L235.438 423.422L238.938 425.155C238.938 425.155 238.927 425.164 238.905 425.178C235.355 427.492 235.281 429.893 239.277 431.871C241.245 432.846 243.203 433.252 245.109 433.311L245.113 433.309C245.499 433.323 245.893 433.32 246.279 433.305C248.488 433.215 250.606 432.707 252.545 432.144C256.599 430.981 259.884 429.611 262.613 430.963C264.444 431.869 263.937 433.008 261.928 434.003C261.604 434.163 261.275 434.304 260.947 434.424C258.377 435.368 255.723 435.141 253.911 434.467L250.2 437.658C255.23 439.387 260.141 438.566 263.853 437.151L267.348 438.882L271.574 436.79L268.078 435.059C271.593 432.727 271.997 430.187 267.893 428.126C267.871 428.112 267.845 428.099 267.824 428.088C264.119 426.253 260.287 426.493 256.874 427.23Z" fill="#BA68C8"/>
<g opacity="0.3">
<path d="M256.874 427.23C256.864 427.232 256.856 427.232 256.845 427.234C255.395 427.548 254.016 427.952 252.758 428.322C251.02 428.84 249.594 429.261 248.373 429.486C248.369 429.488 248.369 429.488 248.366 429.49C247.603 429.629 246.919 429.694 246.281 429.66C245.566 429.624 244.91 429.461 244.272 429.146C242.913 428.473 242.715 427.487 244.692 426.375C244.827 426.297 244.973 426.222 245.126 426.146C245.512 425.955 245.895 425.79 246.281 425.653C248.431 424.873 250.502 424.909 252.42 425.534L255.96 422.471C252.814 421.556 249.544 421.46 246.281 422.17C245.253 422.394 244.225 422.701 243.204 423.083L239.664 421.33L235.438 423.422L238.938 425.155C238.938 425.155 238.927 425.164 238.905 425.178C235.355 427.492 235.281 429.893 239.277 431.871C241.245 432.846 243.203 433.252 245.109 433.311L245.113 433.309C245.499 433.323 245.893 433.32 246.279 433.305C248.488 433.215 250.606 432.707 252.545 432.144C256.599 430.981 259.884 429.611 262.613 430.963C264.444 431.869 263.937 433.008 261.928 434.003C261.604 434.163 261.275 434.304 260.947 434.424C258.377 435.368 255.723 435.141 253.911 434.467L250.2 437.658C255.23 439.387 260.141 438.566 263.853 437.151L267.348 438.882L271.574 436.79L268.078 435.059C271.593 432.727 271.997 430.187 267.893 428.126C267.871 428.112 267.845 428.099 267.824 428.088C264.119 426.253 260.287 426.493 256.874 427.23Z" fill="white"/>
</g>
<path opacity="0.45" d="M235.442 423.421L239.706 421.763L243.206 423.082L239.666 421.33L235.442 423.421Z" fill="#F5F5F5"/>
<path opacity="0.45" d="M245.792 422.284C248.07 421.861 251.756 421.741 254.872 422.547L252.42 425.533L255.96 422.471C252.192 421.44 248.855 421.51 245.792 422.284Z" fill="#F5F5F5"/>
<path opacity="0.45" d="M267.825 428.089C267.847 428.1 267.873 428.112 267.894 428.127C271.998 430.188 271.594 432.728 268.079 435.06C271.193 432.15 270.632 430.121 267.248 428.446C263.873 426.774 259.549 426.792 256.873 427.229C260.287 426.493 264.119 426.253 267.825 428.089Z" fill="#F5F5F5"/>
<path opacity="0.45" d="M268.081 435.06L270.761 436.826L267.352 438.883L271.576 436.791L268.081 435.06Z" fill="#F5F5F5"/>
<path opacity="0.45" d="M260.951 434.424C257.24 435.933 254.218 434.928 254.218 434.928L250.205 437.659L253.916 434.468C255.727 435.141 258.381 435.369 260.951 434.424Z" fill="#F5F5F5"/>
<path opacity="0.45" d="M248.366 429.49C246.769 430.028 244.469 429.937 243.306 429.079C242.085 428.178 242.868 427.213 244.691 426.375C242.715 427.487 242.912 428.473 244.271 429.146C244.909 429.462 245.565 429.624 246.28 429.66C246.919 429.694 247.605 429.629 248.366 429.49Z" fill="#F5F5F5"/>
<path opacity="0.45" d="M238.906 425.177C238.608 425.404 236.065 427.437 237.186 429.47C238.378 431.638 242.107 433.029 245.114 433.309L245.111 433.311C243.204 433.252 241.246 432.845 239.278 431.871C235.282 429.892 235.356 427.491 238.906 425.177Z" fill="#F5F5F5"/>
<path d="M300.784 419.859C298.789 416.972 295.472 414.26 290.82 411.957C274.533 403.892 248.124 403.892 231.835 411.957C227.184 414.26 223.866 416.972 221.871 419.859H219.619V427.168H219.648C219.947 432.249 224.003 437.286 231.835 441.164C248.123 449.229 274.531 449.229 290.82 441.164C298.652 437.286 302.737 432.249 303.037 427.167V427.168V419.859H300.784Z" fill="#BA68C8"/>
<path opacity="0.25" d="M300.784 419.859C298.789 416.972 295.472 414.26 290.82 411.957C274.533 403.892 248.124 403.892 231.835 411.957C227.184 414.26 223.866 416.972 221.871 419.859H219.619V427.168H219.648C219.947 432.249 224.003 437.286 231.835 441.164C248.123 449.229 274.531 449.229 290.82 441.164C298.652 437.286 302.737 432.249 303.037 427.167V427.168V419.859H300.784Z" fill="black"/>
<path opacity="0.1" d="M261.331 405.909C250.657 405.909 239.981 407.925 231.836 411.958C227.185 414.261 223.868 416.973 221.874 419.86H219.62V427.169H219.649C219.95 432.25 224.004 437.287 231.836 441.165C239.981 445.198 250.657 447.214 261.331 447.214V405.909Z" fill="black"/>
<path opacity="0.1" d="M238.549 409.261C236.175 410.029 233.921 410.925 231.836 411.957C227.185 414.26 223.868 416.972 221.874 419.859H219.62V427.168H219.649C219.95 432.249 224.004 437.286 231.836 441.164C233.921 442.196 236.175 443.092 238.549 443.86V409.261Z" fill="black"/>
<path opacity="0.5" d="M284.108 409.261C286.482 410.029 288.736 410.925 290.821 411.957C295.472 414.26 298.789 416.972 300.783 419.859H303.037V427.168V427.167C302.736 432.248 298.653 437.286 290.821 441.164C288.736 442.196 286.482 443.092 284.108 443.86V409.261Z" fill="#BA68C8"/>
<path d="M231.835 405.259C215.546 413.325 215.548 426.401 231.835 434.466C246.087 441.523 268.086 442.406 284.276 437.113L284.278 437.112C284.494 437.041 284.708 436.97 284.924 436.896C286.997 436.189 288.974 435.38 290.821 434.465C304.403 427.739 306.661 417.53 297.587 409.646C297.585 409.643 297.582 409.642 297.582 409.642C295.778 408.073 293.523 406.597 290.821 405.258C274.534 397.195 248.124 397.194 231.835 405.259Z" fill="#BA68C8"/>
<path opacity="0.2" d="M231.835 405.259C215.546 413.325 215.548 426.401 231.835 434.466C246.087 441.523 268.086 442.406 284.276 437.113L284.278 437.112C284.494 437.041 284.708 436.97 284.924 436.896C286.997 436.189 288.974 435.38 290.821 434.465C304.403 427.739 306.661 417.53 297.587 409.646C297.585 409.643 297.582 409.642 297.582 409.642C295.778 408.073 293.523 406.597 290.821 405.258C274.534 397.195 248.124 397.194 231.835 405.259Z" fill="black"/>
<path opacity="0.5" d="M297.588 409.647C297.763 409.816 303.46 414.971 301.95 422.389C300.508 429.487 288.919 435.461 284.925 436.897C286.998 436.19 288.975 435.381 290.822 434.466C304.404 427.74 306.662 417.531 297.588 409.647Z" fill="#F5F5F5"/>
<path opacity="0.5" d="M225.07 430.078C224.895 429.909 219.198 424.754 220.708 417.337C222.15 410.239 233.739 404.265 237.734 402.829C235.661 403.536 233.684 404.345 231.837 405.26C218.254 411.986 215.997 422.195 225.07 430.078Z" fill="#F5F5F5"/>
<path d="M288.759 433.41C303.901 425.913 303.901 413.757 288.759 406.26C273.617 398.763 249.068 398.763 233.927 406.26C218.785 413.757 218.785 425.913 233.927 433.41C249.068 440.907 273.617 440.907 288.759 433.41Z" fill="#BA68C8"/>
<path opacity="0.4" d="M288.759 433.41C303.901 425.913 303.901 413.757 288.759 406.26C273.617 398.763 249.068 398.763 233.927 406.26C218.785 413.757 218.785 425.913 233.927 433.41C249.068 440.907 273.617 440.907 288.759 433.41Z" fill="white"/>
<path opacity="0.2" d="M298.354 425.568C301.47 420.628 300.454 415.182 295.309 410.563C294.358 409.709 293.261 408.884 292.025 408.096C291.066 407.48 290.016 406.888 288.886 406.322C288.267 406.012 287.631 405.716 286.976 405.434C288.587 407.708 287.996 410.145 278.865 410.602C260.995 411.497 283.641 426.143 283.641 426.143C283.641 426.143 295.16 421.373 298.354 425.568Z" fill="white"/>
<path opacity="0.5" d="M296.51 421.517C299.192 421.259 300.521 418.894 299.479 416.234C298.437 413.574 295.418 411.626 292.736 411.884C290.054 412.142 288.725 414.507 289.767 417.167C290.81 419.827 293.829 421.774 296.51 421.517Z" fill="white"/>
<path d="M268.245 433.723C267.364 428.032 238.356 412.276 238.356 412.276C238.356 412.276 231.924 410.062 234.06 406.206C232.944 406.755 231.91 407.329 230.957 407.926C230.287 408.341 229.659 408.767 229.073 409.206C220.437 415.619 220.426 424.043 229.076 430.464C229.659 430.901 230.29 431.329 230.957 431.746C231.847 432.302 232.802 432.836 233.834 433.351C234.818 433.846 235.846 434.304 236.907 434.732C237.752 435.075 238.632 435.398 239.521 435.698C240.407 435.999 241.315 436.279 242.24 436.539C244.997 437.315 247.905 437.907 250.894 438.322C251.539 438.411 252.192 438.492 252.841 438.564C255.691 438.878 258.589 439.035 261.495 439.03C265.061 439.024 268.625 438.776 272.081 438.285C272.082 438.283 267.416 437.466 268.245 433.723Z" fill="#BA68C8"/>
<path opacity="0.3" d="M268.245 433.723C267.364 428.032 238.356 412.276 238.356 412.276C238.356 412.276 231.924 410.062 234.06 406.206C232.944 406.755 231.91 407.329 230.957 407.926C230.287 408.341 229.659 408.767 229.073 409.206C220.437 415.619 220.426 424.043 229.076 430.464C229.659 430.901 230.29 431.329 230.957 431.746C231.847 432.302 232.802 432.836 233.834 433.351C234.818 433.846 235.846 434.304 236.907 434.732C237.752 435.075 238.632 435.398 239.521 435.698C240.407 435.999 241.315 436.279 242.24 436.539C244.997 437.315 247.905 437.907 250.894 438.322C251.539 438.411 252.192 438.492 252.841 438.564C255.691 438.878 258.589 439.035 261.495 439.03C265.061 439.024 268.625 438.776 272.081 438.285C272.082 438.283 267.416 437.466 268.245 433.723Z" fill="white"/>
<path d="M240.904 409.72C230.084 415.078 229.645 423.626 239.584 429.245C240.006 429.483 240.449 429.719 240.909 429.947C252.19 435.533 270.473 435.533 281.754 429.947C293.035 424.361 293.038 415.306 281.757 409.721C281.298 409.493 280.821 409.274 280.339 409.065C268.992 404.143 251.726 404.362 240.904 409.72Z" fill="#BA68C8"/>
<path opacity="0.2" d="M240.904 409.72C230.084 415.078 229.645 423.626 239.584 429.245C240.006 429.483 240.449 429.719 240.909 429.947C252.19 435.533 270.473 435.533 281.754 429.947C293.035 424.361 293.038 415.306 281.757 409.721C281.298 409.493 280.821 409.274 280.339 409.065C268.992 404.143 251.726 404.362 240.904 409.72Z" fill="black"/>
<path d="M241.821 410.166C231.039 415.505 231.039 424.161 241.821 429.5C252.603 434.839 270.085 434.839 280.868 429.5C291.65 424.161 291.65 415.505 280.868 410.166C270.085 404.828 252.603 404.828 241.821 410.166Z" fill="#BA68C8"/>
<path opacity="0.5" d="M241.821 410.166C231.039 415.505 231.039 424.161 241.821 429.5C252.603 434.839 270.085 434.839 280.868 429.5C291.65 424.161 291.65 415.505 280.868 410.166C270.085 404.828 252.603 404.828 241.821 410.166Z" fill="black"/>
<path d="M241.822 413.98C252.604 408.641 270.085 408.641 280.869 413.98C285.277 416.163 287.881 418.901 288.684 421.74C287.881 424.579 285.277 427.317 280.869 429.5C270.087 434.839 252.605 434.839 241.822 429.5C237.412 427.317 234.808 424.578 234.006 421.74C234.809 418.901 237.413 416.163 241.822 413.98Z" fill="#BA68C8"/>
<path opacity="0.35" d="M241.822 413.98C252.604 408.641 270.085 408.641 280.869 413.98C285.277 416.163 287.881 418.901 288.684 421.74C287.881 424.579 285.277 427.317 280.869 429.5C270.087 434.839 252.605 434.839 241.822 429.5C237.412 427.317 234.808 424.578 234.006 421.74C234.809 418.901 237.413 416.163 241.822 413.98Z" fill="black"/>
<path d="M278.73 423.952C278.728 423.491 278.737 421.61 278.732 421.126C278.723 419.967 277.796 418.843 275.785 417.833C275.763 417.819 275.737 417.806 275.715 417.795C272.007 415.959 268.177 416.199 264.764 416.936C264.753 416.938 264.745 416.938 264.735 416.94C263.284 417.254 261.906 417.658 260.648 418.028C258.909 418.546 257.483 418.967 256.262 419.192C256.259 419.194 256.259 419.194 256.255 419.196C255.494 419.335 254.808 419.4 254.171 419.366C253.561 419.335 252.994 419.205 252.444 418.973C252.49 418.946 252.532 418.918 252.581 418.891C252.717 418.813 252.862 418.738 253.015 418.662C253.401 418.471 253.785 418.307 254.171 418.169C256.322 417.389 258.391 417.425 260.31 418.05L263.85 414.987V412.177C260.704 411.262 257.433 411.166 254.171 411.876C253.142 412.1 252.115 412.407 251.093 412.789L247.554 411.036L243.329 413.128V415.938L244.776 416.655C244.362 417.206 244.152 417.755 244.155 418.294C244.157 418.761 244.16 420.628 244.159 421.099C244.156 422.26 245.129 423.379 247.168 424.388C249.136 425.363 251.094 425.769 253 425.828L253.003 425.826C253.389 425.84 253.783 425.837 254.171 425.822C256.38 425.732 258.498 425.225 260.437 424.661C260.852 424.542 261.256 424.421 261.656 424.301L258.093 427.365V430.175C263.123 431.904 268.034 431.083 271.745 429.668L275.24 431.399L279.465 429.307V426.497L278.014 425.779C278.489 425.168 278.734 424.555 278.73 423.952ZM269.821 423.71C269.496 423.871 269.168 424.011 268.84 424.131C266.328 425.053 263.74 424.856 261.933 424.219C265.241 423.219 268.003 422.343 270.357 423.418C270.191 423.515 270.015 423.613 269.821 423.71Z" fill="#BA68C8"/>
<path d="M264.765 416.935C264.754 416.937 264.746 416.937 264.736 416.939C263.285 417.253 261.907 417.657 260.649 418.027C258.91 418.545 257.484 418.966 256.264 419.191C256.26 419.193 256.26 419.193 256.257 419.195C255.495 419.334 254.81 419.399 254.172 419.365C253.457 419.329 252.801 419.166 252.163 418.851C250.803 418.178 250.606 417.192 252.581 416.08C252.717 416.002 252.862 415.927 253.015 415.851C253.401 415.66 253.785 415.495 254.171 415.358C256.322 414.578 258.391 414.614 260.31 415.239L263.85 412.176C260.704 411.261 257.433 411.165 254.171 411.875C253.142 412.099 252.115 412.406 251.093 412.788L247.554 411.035L243.329 413.127L246.828 414.86C246.828 414.86 246.818 414.869 246.796 414.883C243.245 417.197 243.172 419.598 247.168 421.576C249.136 422.551 251.094 422.957 253 423.016L253.003 423.014C253.389 423.029 253.783 423.025 254.169 423.01C256.379 422.92 258.496 422.412 260.435 421.849C264.49 420.687 267.774 419.317 270.504 420.668C272.335 421.574 271.827 422.713 269.818 423.708C269.494 423.869 269.165 424.009 268.838 424.129C266.268 425.073 263.614 424.846 261.802 424.172L258.091 427.363C263.121 429.092 268.032 428.271 271.742 426.856L275.238 428.587L279.462 426.495L275.967 424.764C279.481 422.432 279.886 419.892 275.781 417.831C275.759 417.817 275.733 417.804 275.712 417.793C272.008 415.959 268.177 416.199 264.765 416.935Z" fill="#BA68C8"/>
<g opacity="0.3">
<path d="M264.765 416.935C264.754 416.937 264.746 416.937 264.736 416.939C263.285 417.253 261.907 417.657 260.649 418.027C258.91 418.545 257.484 418.966 256.264 419.191C256.26 419.193 256.26 419.193 256.257 419.195C255.495 419.334 254.81 419.399 254.172 419.365C253.457 419.329 252.801 419.166 252.163 418.851C250.803 418.178 250.606 417.192 252.581 416.08C252.717 416.002 252.862 415.927 253.015 415.851C253.401 415.66 253.785 415.495 254.171 415.358C256.322 414.578 258.391 414.614 260.31 415.239L263.85 412.176C260.704 411.261 257.433 411.165 254.171 411.875C253.142 412.099 252.115 412.406 251.093 412.788L247.554 411.035L243.329 413.127L246.828 414.86C246.828 414.86 246.818 414.869 246.796 414.883C243.245 417.197 243.172 419.598 247.168 421.576C249.136 422.551 251.094 422.957 253 423.016L253.003 423.014C253.389 423.029 253.783 423.025 254.169 423.01C256.379 422.92 258.496 422.412 260.435 421.849C264.49 420.687 267.774 419.317 270.504 420.668C272.335 421.574 271.827 422.713 269.818 423.708C269.494 423.869 269.165 424.009 268.838 424.129C266.268 425.073 263.614 424.846 261.802 424.172L258.091 427.363C263.121 429.092 268.032 428.271 271.742 426.856L275.238 428.587L279.462 426.495L275.967 424.764C279.481 422.432 279.886 419.892 275.781 417.831C275.759 417.817 275.733 417.804 275.712 417.793C272.008 415.959 268.177 416.199 264.765 416.935Z" fill="white"/>
</g>
<path opacity="0.45" d="M243.332 413.127L247.597 411.469L251.096 412.788L247.556 411.035L243.332 413.127Z" fill="#F5F5F5"/>
<path opacity="0.45" d="M253.682 411.99C255.96 411.567 259.646 411.447 262.763 412.253L260.311 415.239L263.851 412.177C260.082 411.145 256.744 411.216 253.682 411.99Z" fill="#F5F5F5"/>
<path opacity="0.45" d="M275.716 417.795C275.738 417.806 275.764 417.819 275.785 417.833C279.889 419.894 279.484 422.434 275.97 424.766C279.083 421.856 278.522 419.827 275.139 418.152C271.763 416.481 267.44 416.499 264.764 416.935C268.177 416.199 272.008 415.959 275.716 417.795Z" fill="#F5F5F5"/>
<path opacity="0.45" d="M275.971 424.766L278.651 426.532L275.243 428.589L279.467 426.497L275.971 424.766Z" fill="#F5F5F5"/>
<path opacity="0.45" d="M268.84 424.13C265.128 425.639 262.106 424.634 262.106 424.634L258.093 427.365L261.804 424.174C263.616 424.847 266.27 425.074 268.84 424.13Z" fill="#F5F5F5"/>
<path opacity="0.45" d="M256.257 419.195C254.66 419.733 252.36 419.641 251.197 418.783C249.977 417.882 250.76 416.917 252.583 416.079C250.606 417.191 250.803 418.177 252.164 418.85C252.802 419.166 253.458 419.328 254.173 419.364C254.81 419.399 255.495 419.334 256.257 419.195Z" fill="#F5F5F5"/>
<path opacity="0.45" d="M246.797 414.883C246.498 415.11 243.955 417.143 245.077 419.176C246.269 421.344 249.996 422.735 253.005 423.015L253.001 423.017C251.095 422.957 249.137 422.551 247.169 421.577C243.173 419.598 243.246 417.197 246.797 414.883Z" fill="#F5F5F5"/>
<path d="M291.313 407.822C289.318 404.935 286 402.223 281.35 399.92C265.061 391.855 238.654 391.855 222.365 399.92C217.713 402.223 214.396 404.935 212.401 407.822H210.148V415.13H210.178C210.477 420.211 214.533 425.248 222.365 429.126C238.652 437.191 265.061 437.191 281.35 429.126C289.182 425.248 293.267 420.211 293.566 415.129V407.821L291.313 407.822Z" fill="#BA68C8"/>
<path opacity="0.25" d="M291.313 407.822C289.318 404.935 286 402.223 281.35 399.92C265.061 391.855 238.654 391.855 222.365 399.92C217.713 402.223 214.396 404.935 212.401 407.822H210.148V415.13H210.178C210.477 420.211 214.533 425.248 222.365 429.126C238.652 437.191 265.061 437.191 281.35 429.126C289.182 425.248 293.267 420.211 293.566 415.129V407.821L291.313 407.822Z" fill="black"/>
<path opacity="0.1" d="M251.858 393.871C241.184 393.871 230.508 395.887 222.363 399.92C217.712 402.223 214.395 404.935 212.4 407.822H210.146V415.13H210.175C210.476 420.211 214.53 425.248 222.362 429.126C230.507 433.159 241.183 435.175 251.857 435.175L251.858 393.871Z" fill="black"/>
<path opacity="0.1" d="M229.077 397.224C226.703 397.992 224.45 398.888 222.365 399.92C217.714 402.223 214.396 404.935 212.401 407.822H210.147V415.13H210.177C210.477 420.211 214.532 425.248 222.364 429.126C224.448 430.158 226.702 431.054 229.076 431.823V397.224H229.077Z" fill="black"/>
<path opacity="0.5" d="M274.636 397.224C277.01 397.992 279.264 398.888 281.349 399.92C286 402.223 289.317 404.935 291.311 407.822H293.565V415.13C293.264 420.211 289.181 425.248 281.349 429.127C279.264 430.159 277.009 431.055 274.636 431.823V397.224Z" fill="#BA68C8"/>
<path d="M222.363 393.222C206.074 401.287 206.077 414.364 222.363 422.429C236.615 429.486 258.614 430.369 274.804 425.076L274.807 425.075C275.022 425.004 275.237 424.933 275.453 424.859C277.526 424.152 279.502 423.343 281.349 422.428C294.932 415.702 297.189 405.493 288.116 397.609C288.114 397.606 288.112 397.605 288.112 397.605C286.308 396.036 284.053 394.56 281.349 393.221C265.062 385.158 238.652 385.157 222.363 393.222Z" fill="#BA68C8"/>
<path opacity="0.2" d="M222.363 393.222C206.074 401.287 206.077 414.364 222.363 422.429C236.615 429.486 258.614 430.369 274.804 425.076L274.807 425.075C275.022 425.004 275.237 424.933 275.453 424.859C277.526 424.152 279.502 423.343 281.349 422.428C294.932 415.702 297.189 405.493 288.116 397.609C288.114 397.606 288.112 397.605 288.112 397.605C286.308 396.036 284.053 394.56 281.349 393.221C265.062 385.158 238.652 385.157 222.363 393.222Z" fill="black"/>
<path opacity="0.5" d="M288.115 397.61C288.29 397.779 293.987 402.934 292.477 410.352C291.035 417.45 279.446 423.424 275.453 424.859C277.526 424.152 279.502 423.343 281.349 422.428C294.932 415.703 297.189 405.494 288.115 397.61Z" fill="#F5F5F5"/>
<path opacity="0.5" d="M215.598 418.041C215.423 417.872 209.726 412.717 211.236 405.299C212.679 398.201 224.268 392.227 228.262 390.791C226.189 391.498 224.213 392.307 222.366 393.222C208.782 399.949 206.525 410.158 215.598 418.041Z" fill="#F5F5F5"/>
<path d="M251.872 426.995C273.286 426.995 290.644 418.399 290.644 407.797C290.644 397.194 273.286 388.599 251.872 388.599C230.459 388.599 213.101 397.194 213.101 407.797C213.101 418.399 230.459 426.995 251.872 426.995Z" fill="#BA68C8"/>
<path opacity="0.4" d="M251.872 426.995C273.286 426.995 290.644 418.399 290.644 407.797C290.644 397.194 273.286 388.599 251.872 388.599C230.459 388.599 213.101 397.194 213.101 407.797C213.101 418.399 230.459 426.995 251.872 426.995Z" fill="white"/>
<path opacity="0.2" d="M214.861 413.53C211.744 408.59 212.761 403.144 217.905 398.525C218.857 397.671 219.954 396.846 221.19 396.058C222.149 395.442 223.199 394.85 224.329 394.284C224.948 393.974 225.582 393.678 226.239 393.396C224.627 395.67 225.219 398.107 234.35 398.564C252.22 399.459 229.574 414.106 229.574 414.106C229.574 414.106 218.055 409.335 214.861 413.53Z" fill="white"/>
<path opacity="0.5" d="M216.704 409.48C214.022 409.222 212.693 406.857 213.736 404.197C214.778 401.537 217.797 399.589 220.479 399.847C223.16 400.105 224.49 402.47 223.447 405.13C222.405 407.789 219.386 409.737 216.704 409.48Z" fill="white"/>
<path d="M244.971 421.685C245.851 415.994 274.859 400.238 274.859 400.238C274.859 400.238 281.292 398.024 279.155 394.168C280.271 394.717 281.306 395.291 282.258 395.888C282.929 396.303 283.556 396.729 284.144 397.168C292.779 403.581 292.791 412.006 284.14 418.426C283.557 418.863 282.926 419.291 282.259 419.707C281.37 420.263 280.415 420.797 279.383 421.312C278.399 421.807 277.37 422.265 276.309 422.693C275.464 423.036 274.585 423.359 273.695 423.659C272.809 423.961 271.902 424.24 270.976 424.5C268.22 425.276 265.312 425.868 262.322 426.283C261.677 426.372 261.024 426.453 260.376 426.525C257.525 426.839 254.628 426.996 251.722 426.991C248.156 426.985 244.592 426.737 241.136 426.246C241.136 426.246 245.8 425.427 244.971 421.685Z" fill="#BA68C8"/>
<path opacity="0.3" d="M244.971 421.685C245.851 415.994 274.859 400.238 274.859 400.238C274.859 400.238 281.292 398.024 279.155 394.168C280.271 394.717 281.306 395.291 282.258 395.888C282.929 396.303 283.556 396.729 284.144 397.168C292.779 403.581 292.791 412.006 284.14 418.426C283.557 418.863 282.926 419.291 282.259 419.707C281.37 420.263 280.415 420.797 279.383 421.312C278.399 421.807 277.37 422.265 276.309 422.693C275.464 423.036 274.585 423.359 273.695 423.659C272.809 423.961 271.902 424.24 270.976 424.5C268.22 425.276 265.312 425.868 262.322 426.283C261.677 426.372 261.024 426.453 260.376 426.525C257.525 426.839 254.628 426.996 251.722 426.991C248.156 426.985 244.592 426.737 241.136 426.246C241.136 426.246 245.8 425.427 244.971 421.685Z" fill="white"/>
<path d="M272.31 397.683C283.13 403.041 283.569 411.589 273.63 417.208C273.208 417.446 272.765 417.682 272.305 417.91C261.024 423.496 242.741 423.496 231.46 417.91C220.179 412.324 220.176 403.269 231.456 397.683C231.915 397.456 232.392 397.236 232.873 397.027C244.223 392.106 261.489 392.325 272.31 397.683Z" fill="#BA68C8"/>
<path opacity="0.2" d="M272.31 397.683C283.13 403.041 283.569 411.589 273.63 417.208C273.208 417.446 272.765 417.682 272.305 417.91C261.024 423.496 242.741 423.496 231.46 417.91C220.179 412.324 220.176 403.269 231.456 397.683C231.915 397.456 232.392 397.236 232.873 397.027C244.223 392.106 261.489 392.325 272.31 397.683Z" fill="black"/>
<path d="M271.393 398.129C282.175 403.468 282.175 412.124 271.393 417.463C260.611 422.802 243.129 422.802 232.346 417.463C221.564 412.124 221.564 403.468 232.346 398.129C243.129 392.79 260.611 392.79 271.393 398.129Z" fill="#BA68C8"/>
<path opacity="0.5" d="M271.393 398.129C282.175 403.468 282.175 412.124 271.393 417.463C260.611 422.802 243.129 422.802 232.346 417.463C221.564 412.124 221.564 403.468 232.346 398.129C243.129 392.79 260.611 392.79 271.393 398.129Z" fill="black"/>
<path d="M271.393 401.943C260.611 396.604 243.13 396.604 232.346 401.943C227.937 404.126 225.334 406.864 224.531 409.703C225.334 412.542 227.938 415.28 232.346 417.463C243.128 422.802 260.61 422.802 271.392 417.463C275.802 415.28 278.406 412.542 279.208 409.703C278.406 406.864 275.802 404.126 271.393 401.943Z" fill="#BA68C8"/>
<path opacity="0.35" d="M271.393 401.943C260.611 396.604 243.13 396.604 232.346 401.943C227.937 404.126 225.334 406.864 224.531 409.703C225.334 412.542 227.938 415.28 232.346 417.463C243.128 422.802 260.61 422.802 271.392 417.463C275.802 415.28 278.406 412.542 279.208 409.703C278.406 406.864 275.802 404.126 271.393 401.943Z" fill="black"/>
<path d="M269.258 411.914C269.255 411.453 269.265 409.572 269.26 409.088C269.249 407.929 268.324 406.805 266.312 405.795C266.29 405.781 266.264 405.768 266.242 405.757C262.534 403.921 258.704 404.161 255.291 404.898C255.281 404.9 255.273 404.9 255.262 404.902C253.812 405.216 252.433 405.62 251.175 405.99C249.437 406.508 248.011 406.929 246.79 407.154C246.786 407.156 246.786 407.156 246.783 407.158C246.02 407.297 245.336 407.362 244.698 407.328C244.088 407.297 243.522 407.167 242.971 406.935C243.018 406.908 243.06 406.88 243.109 406.853C243.244 406.775 243.39 406.7 243.543 406.624C243.929 406.433 244.312 406.269 244.698 406.131C246.848 405.351 248.919 405.387 250.837 406.012L254.377 402.949V400.139C251.231 399.224 247.962 399.128 244.698 399.838C243.67 400.062 242.642 400.369 241.621 400.751L238.081 398.998L233.855 401.09V403.9L235.302 404.617C234.889 405.168 234.679 405.717 234.681 406.256C234.683 406.723 234.687 408.59 234.686 409.061C234.682 410.222 235.656 411.341 237.694 412.35C239.662 413.325 241.62 413.731 243.526 413.79L243.53 413.788C243.916 413.803 244.31 413.799 244.697 413.784C246.907 413.694 249.024 413.187 250.963 412.623C251.378 412.504 251.783 412.383 252.183 412.263L248.619 415.327V418.137C253.649 419.866 258.561 419.045 262.272 417.63L265.768 419.361L269.992 417.269V414.459L268.542 413.741C269.016 413.131 269.261 412.518 269.258 411.914ZM260.349 411.673C260.025 411.834 259.698 411.974 259.369 412.094C256.857 413.016 254.269 412.819 252.461 412.182C255.769 411.182 258.532 410.306 260.886 411.381C260.72 411.478 260.544 411.576 260.349 411.673Z" fill="#BA68C8"/>
<path d="M255.293 404.898C255.282 404.9 255.275 404.9 255.264 404.902C253.814 405.216 252.435 405.62 251.177 405.99C249.439 406.508 248.013 406.929 246.792 407.154C246.788 407.156 246.788 407.156 246.785 407.158C246.022 407.297 245.338 407.362 244.7 407.328C243.985 407.292 243.329 407.129 242.691 406.814C241.331 406.141 241.134 405.155 243.111 404.043C243.246 403.965 243.392 403.89 243.545 403.814C243.93 403.623 244.314 403.458 244.7 403.321C246.85 402.541 248.921 402.577 250.839 403.202L254.379 400.139C251.233 399.224 247.963 399.128 244.7 399.838C243.672 400.062 242.644 400.369 241.623 400.751L238.083 398.998L233.857 401.09L237.357 402.823C237.357 402.823 237.346 402.832 237.324 402.846C233.773 405.16 233.7 407.561 237.696 409.539C239.664 410.514 241.622 410.92 243.528 410.979L243.532 410.977C243.918 410.991 244.312 410.988 244.698 410.974C246.907 410.884 249.025 410.376 250.964 409.813C255.018 408.65 258.303 407.28 261.032 408.632C262.862 409.538 262.356 410.677 260.347 411.672C260.022 411.833 259.695 411.973 259.366 412.093C256.796 413.037 254.142 412.81 252.33 412.136L248.619 415.327C253.649 417.056 258.56 416.235 262.271 414.82L265.766 416.551L269.991 414.459L266.495 412.728C270.009 410.396 270.414 407.856 266.308 405.795C266.286 405.781 266.261 405.768 266.24 405.757C262.536 403.922 258.705 404.162 255.293 404.898Z" fill="#BA68C8"/>
<g opacity="0.3">
<path d="M255.293 404.898C255.282 404.9 255.275 404.9 255.264 404.902C253.814 405.216 252.435 405.62 251.177 405.99C249.439 406.508 248.013 406.929 246.792 407.154C246.788 407.156 246.788 407.156 246.785 407.158C246.022 407.297 245.338 407.362 244.7 407.328C243.985 407.292 243.329 407.129 242.691 406.814C241.331 406.141 241.134 405.155 243.111 404.043C243.246 403.965 243.392 403.89 243.545 403.814C243.93 403.623 244.314 403.458 244.7 403.321C246.85 402.541 248.921 402.577 250.839 403.202L254.379 400.139C251.233 399.224 247.963 399.128 244.7 399.838C243.672 400.062 242.644 400.369 241.623 400.751L238.083 398.998L233.857 401.09L237.357 402.823C237.357 402.823 237.346 402.832 237.324 402.846C233.773 405.16 233.7 407.561 237.696 409.539C239.664 410.514 241.622 410.92 243.528 410.979L243.532 410.977C243.918 410.991 244.312 410.988 244.698 410.974C246.907 410.884 249.025 410.376 250.964 409.813C255.018 408.65 258.303 407.28 261.032 408.632C262.862 409.538 262.356 410.677 260.347 411.672C260.022 411.833 259.695 411.973 259.366 412.093C256.796 413.037 254.142 412.81 252.33 412.136L248.619 415.327C253.649 417.056 258.56 416.235 262.271 414.82L265.766 416.551L269.991 414.459L266.495 412.728C270.009 410.396 270.414 407.856 266.308 405.795C266.286 405.781 266.261 405.768 266.24 405.757C262.536 403.922 258.705 404.162 255.293 404.898Z" fill="white"/>
</g>
<path opacity="0.45" d="M233.86 401.09L238.124 399.432L241.623 400.751L238.083 398.998L233.86 401.09Z" fill="#F5F5F5"/>
<path opacity="0.45" d="M244.209 399.953C246.487 399.529 250.173 399.41 253.29 400.216L250.838 403.201L254.378 400.14C250.609 399.108 247.272 399.178 244.209 399.953Z" fill="#F5F5F5"/>
<path opacity="0.45" d="M266.243 405.758C266.265 405.769 266.291 405.78 266.312 405.795C270.416 407.856 270.012 410.397 266.498 412.729C269.612 409.819 269.051 407.79 265.667 406.114C262.291 404.442 257.968 404.462 255.292 404.898C258.705 404.162 262.536 403.922 266.243 405.758Z" fill="#F5F5F5"/>
<path opacity="0.45" d="M266.498 412.728L269.179 414.495L265.77 416.552L269.994 414.46L266.498 412.728Z" fill="#F5F5F5"/>
<path opacity="0.45" d="M259.368 412.093C255.657 413.602 252.634 412.597 252.634 412.597L248.621 415.328L252.332 412.137C254.144 412.81 256.798 413.037 259.368 412.093Z" fill="#F5F5F5"/>
<path opacity="0.45" d="M246.783 407.158C245.187 407.696 242.887 407.605 241.724 406.746C240.503 405.845 241.287 404.88 243.109 404.042C241.133 405.154 241.33 406.138 242.69 406.812C243.327 407.128 243.984 407.291 244.699 407.327C245.336 407.362 246.022 407.297 246.783 407.158Z" fill="#F5F5F5"/>
<path opacity="0.45" d="M237.324 402.846C237.025 403.073 234.481 405.106 235.604 407.139C236.796 409.307 240.523 410.698 243.532 410.978L243.528 410.98C241.622 410.92 239.664 410.514 237.696 409.54C233.701 407.561 233.773 405.16 237.324 402.846Z" fill="#F5F5F5"/>
<path d="M215.017 404.186L216.069 397.343L217.121 404.186L230.94 404.707L217.121 405.227L216.069 412.07L215.017 405.227L201.197 404.707L215.017 404.186Z" fill="white"/>
<g opacity="0.3">
<path d="M464.969 418.082C464.91 418.082 464.849 418.069 464.796 418.042L442.217 406.862C442.11 406.809 442.043 406.711 442.043 406.604C442.043 406.497 442.11 406.399 442.217 406.346L470.441 392.371C470.55 392.317 470.682 392.317 470.789 392.371L493.367 403.551C493.475 403.604 493.54 403.702 493.54 403.809C493.54 403.916 493.473 404.014 493.367 404.067L465.144 418.042C465.089 418.069 465.029 418.082 464.969 418.082ZM443.086 406.605L464.969 417.441L492.497 403.81L470.614 392.974L443.086 406.605Z" fill="#BA68C8"/>
</g>
<path d="M464.97 414.99L464.968 314.764L448.034 306.379L448.036 406.605L464.97 414.99Z" fill="#BA68C8"/>
<path opacity="0.2" d="M464.97 414.99L464.968 314.764L448.034 306.379L448.036 406.605L464.97 414.99Z" fill="black"/>
<path d="M464.97 414.99L487.548 403.81L487.552 303.586L464.967 314.764L464.97 414.99Z" fill="#BA68C8"/>
<path d="M487.552 303.586L470.618 295.201L448.034 306.379L464.968 314.764L487.552 303.586Z" fill="#BA68C8"/>
<path opacity="0.25" d="M487.552 303.586L470.618 295.201L448.034 306.379L464.968 314.764L487.552 303.586Z" fill="white"/>
<path opacity="0.3" d="M487.551 303.585L464.743 314.368L457.336 310.822L448.032 306.379L457.17 311.068L464.661 314.903C464.483 317.083 464.434 406.131 464.469 408.311C464.508 410.538 464.629 412.764 464.968 414.99C465.307 412.764 465.427 410.537 465.464 408.31C465.497 406.199 465.449 317.222 465.284 315.112L487.551 303.585Z" fill="white"/>
<g opacity="0.3">
<path d="M422.636 439.045C422.576 439.045 422.516 439.032 422.462 439.005L399.884 427.825C399.776 427.772 399.711 427.674 399.711 427.567C399.711 427.461 399.777 427.362 399.884 427.309L428.108 413.335C428.216 413.282 428.347 413.282 428.455 413.335L451.034 424.515C451.141 424.568 451.207 424.666 451.207 424.773C451.207 424.88 451.141 424.978 451.034 425.031L422.811 439.006C422.755 439.032 422.695 439.045 422.636 439.045ZM400.751 427.567L422.635 438.403L450.163 424.772L428.28 413.937L400.751 427.567Z" fill="#BA68C8"/>
</g>
<path d="M422.636 435.952L422.632 375.819L405.698 367.434L405.702 427.567L422.636 435.952Z" fill="#BA68C8"/>
<path opacity="0.1" d="M422.636 435.952L422.632 375.819L405.698 367.434L405.702 427.567L422.636 435.952Z" fill="white"/>
<path d="M422.635 435.952L445.214 424.772L445.216 364.64L422.632 375.819L422.635 435.952Z" fill="#BA68C8"/>
<path opacity="0.3" d="M422.635 435.952L445.214 424.772L445.216 364.64L422.632 375.819L422.635 435.952Z" fill="white"/>
<path d="M445.216 364.64L428.282 356.255L405.698 367.434L422.632 375.819L445.216 364.64Z" fill="#BA68C8"/>
<path opacity="0.55" d="M445.216 364.64L428.282 356.255L405.698 367.434L422.632 375.819L445.216 364.64Z" fill="white"/>
<path opacity="0.3" d="M422.933 376.176L445.216 364.64L422.405 375.425C419.946 374.23 417.473 373.055 415.002 371.877L405.698 367.434L414.836 372.123C417.334 373.406 419.828 374.693 422.338 375.958C422.259 378.219 422.177 389.126 422.153 391.386C422.126 393.693 422.114 419.803 422.137 422.11C422.152 424.417 422.196 426.724 422.286 429.031C422.353 431.338 422.463 433.645 422.636 435.952C422.808 433.645 422.917 431.338 422.984 429.031C423.073 426.724 423.117 424.417 423.131 422.11C423.152 419.803 423.139 393.693 423.112 391.386C423.088 389.198 423.01 378.364 422.933 376.176Z" fill="white"/>
<g opacity="0.3">
<path d="M380.3 460.007C380.241 460.007 380.18 459.994 380.127 459.967L357.548 448.787C357.441 448.734 357.375 448.636 357.375 448.529C357.375 448.422 357.441 448.324 357.548 448.271L385.772 434.296C385.881 434.243 386.011 434.243 386.12 434.296L408.698 445.476C408.806 445.529 408.872 445.627 408.872 445.734C408.872 445.841 408.806 445.939 408.698 445.992L380.475 459.967C380.421 459.994 380.36 460.007 380.3 460.007ZM358.417 448.53L380.3 459.366L407.828 445.735L385.945 434.899L358.417 448.53Z" fill="#BA68C8"/>
</g>
<path d="M380.301 456.914L380.297 435.782L363.365 427.397L363.367 448.53L380.301 456.914Z" fill="#BA68C8"/>
<path opacity="0.45" d="M380.301 456.914L380.297 435.782L363.365 427.397L363.367 448.53L380.301 456.914Z" fill="black"/>
<path d="M380.301 456.915L402.879 445.736L402.883 424.604L380.297 435.783L380.301 456.915Z" fill="#BA68C8"/>
<path opacity="0.3" d="M380.301 456.915L402.879 445.736L402.883 424.604L380.297 435.783L380.301 456.915Z" fill="black"/>
<path d="M402.883 424.603L385.948 416.218L363.365 427.397L380.297 435.782L402.883 424.603Z" fill="#BA68C8"/>
<path opacity="0.15" d="M402.883 424.603L385.948 416.218L363.365 427.397L380.297 435.782L402.883 424.603Z" fill="black"/>
<path opacity="0.3" d="M402.883 424.604L380.074 435.387L372.667 431.841L363.363 427.398L372.501 432.087L379.987 435.919C379.814 437.246 379.767 451.471 379.802 452.798C379.84 454.171 379.961 455.543 380.301 456.916C380.639 455.543 380.759 454.171 380.796 452.798C380.828 451.539 380.783 437.383 380.631 436.124L402.883 424.604Z" fill="white"/>
<g opacity="0.3">
<path d="M507.305 397.12C507.245 397.12 507.185 397.107 507.131 397.08L484.553 385.9C484.445 385.847 484.379 385.749 484.379 385.642C484.379 385.535 484.445 385.437 484.553 385.384L512.777 371.409C512.885 371.356 513.016 371.356 513.124 371.409L535.703 382.589C535.81 382.642 535.876 382.74 535.876 382.847C535.876 382.954 535.81 383.052 535.703 383.105L507.479 397.08C507.425 397.107 507.364 397.12 507.305 397.12ZM485.421 385.643L507.305 396.479L534.834 382.848L512.951 372.012L485.421 385.643Z" fill="#BA68C8"/>
</g>
<path d="M507.305 394.028L507.301 255.288L490.369 246.903L490.371 385.643L507.305 394.028Z" fill="#BA68C8"/>
<path opacity="0.3" d="M507.305 394.028L507.301 255.288L490.369 246.903L490.371 385.643L507.305 394.028Z" fill="white"/>
<path d="M507.305 394.028L529.883 382.848L529.887 244.109L507.301 255.288L507.305 394.028Z" fill="#BA68C8"/>
<path opacity="0.55" d="M507.305 394.028L529.883 382.848L529.887 244.109L507.301 255.288L507.305 394.028Z" fill="white"/>
<path d="M529.887 244.109L512.952 235.724L490.369 246.903L507.301 255.288L529.887 244.109Z" fill="#BA68C8"/>
<path opacity="0.75" d="M529.887 244.109L512.952 235.724L490.369 246.903L507.301 255.288L529.887 244.109Z" fill="white"/>
<path opacity="0.3" d="M507.601 255.646L529.887 244.11L507.075 254.895C504.616 253.7 502.143 252.525 499.672 251.347L490.369 246.904L499.507 251.593C502.004 252.876 504.498 254.163 507.009 255.428C506.929 257.99 506.847 290.124 506.823 292.686C506.796 295.294 506.785 375.77 506.807 378.378C506.822 380.986 506.866 383.595 506.955 386.203C507.023 388.811 507.132 391.42 507.305 394.028C507.477 391.42 507.586 388.811 507.653 386.203C507.742 383.595 507.786 380.986 507.8 378.378C507.823 375.77 507.81 295.294 507.782 292.686C507.758 290.196 507.678 258.135 507.601 255.646Z" fill="white"/>
<path opacity="0.5" d="M114.234 169.841L48.8203 202.231L81.5289 150.7L114.234 169.841Z" fill="#BA68C8"/>
<path opacity="0.3" d="M114.234 193.397L48.8203 225.787L81.5289 174.256L114.234 193.397Z" fill="#BA68C8"/>
<path opacity="0.15" d="M114.234 216.953L48.8203 249.343L81.5289 197.812L114.234 216.953Z" fill="#BA68C8"/>
<path opacity="0.2" d="M262.949 284.067C268.159 280.215 275.068 276.602 283.477 273.331C292.928 269.655 304.292 266.397 312.184 262.399C322.439 257.203 326.348 250.94 325.6 244.638C325.176 241.069 322.696 237.111 313.237 234.481C310.815 233.808 307.864 233.232 304.685 233.1C300.018 232.906 295.972 233.69 292.714 234.535C275.333 239.046 267.954 245.977 262.124 252.712C256.293 259.446 249.212 263.349 236.485 269.696C231.038 272.412 225.195 275.071 220.051 277.821C220.009 277.843 219.968 277.865 219.926 277.888C217.328 279.285 214.466 280.58 212.42 282.079C209.156 284.47 206.283 286.936 205.108 289.546C203.932 292.156 204.519 294.933 207.989 297.532C208.882 298.201 210.044 298.887 212.029 299.342C213.709 299.727 215.813 299.905 217.844 299.964C221.983 300.084 225.982 299.747 229.363 299.179C232.743 298.611 235.561 297.822 238.163 296.989C249.507 293.359 256.729 288.666 262.949 284.067Z" fill="black"/>
<path d="M209.648 151.349C208.695 153.517 205.92 158.122 206.094 158.703C206.568 160.293 206.66 161.263 206.25 163.118C206.006 164.227 194.82 167.998 194.82 167.998L194.548 166.481C194.365 165.458 194.515 164.414 194.99 163.463C196.286 160.869 198.931 155.197 199.756 150.616L209.648 151.349Z" fill="#FFA8A7"/>
<path d="M206.426 162.144L194.59 166.708L194.821 167.999C194.821 167.999 206.007 164.228 206.252 163.119C206.328 162.762 206.383 162.445 206.426 162.144Z" fill="#F28F8F"/>
<path d="M170.531 181.659L166.974 212.998C166.801 214.517 167.954 215.5 169.398 216.401L173.025 218.627C174.027 219.243 174.598 219.469 175.969 219.384C176.569 219.351 177.606 219.021 178.103 218.834C178.136 218.83 178.161 218.818 178.187 218.806L178.406 218.721L219.891 202.552C222.923 201.37 224.988 198.892 225.311 196.05L228.551 167.514C228.625 166.865 228.179 166.023 227.56 165.644L221.365 161.85C220.748 161.467 219.679 161.377 218.988 161.651L171.928 179.993C171.575 180.123 171.247 180.385 170.996 180.682C170.745 180.986 170.567 181.337 170.531 181.659Z" fill="#37474F"/>
<path d="M170.531 181.659L166.974 212.998C166.801 214.517 167.954 215.5 169.398 216.401L173.025 218.627C174.027 219.243 174.598 219.469 175.969 219.384C176.569 219.351 177.606 219.021 178.103 218.834L178.104 218.821C176.503 219.308 175.375 218.524 175.552 216.97L178.904 187.442C178.96 186.949 179.223 186.418 179.605 185.96L170.998 180.682C170.745 180.986 170.567 181.337 170.531 181.659Z" fill="#263238"/>
<path d="M178.902 187.442C179.013 186.459 179.962 185.322 181.009 184.914L225.487 167.578C227.246 166.893 228.53 167.681 228.344 169.329L225.313 196.046C224.992 198.889 222.924 201.368 219.893 202.55L178.406 218.72C176.648 219.405 175.363 218.618 175.55 216.969L178.902 187.442Z" fill="#455A64"/>
<path d="M226.638 168.831C226.607 168.869 226.625 168.995 226.604 169.184L223.575 195.902C223.313 198.204 221.626 200.228 219.169 201.186L177.683 217.357C177.48 217.436 177.342 217.461 177.265 217.468C177.284 217.428 177.267 217.303 177.289 217.116L180.641 187.588C180.7 187.079 181.19 186.49 181.733 186.278L226.211 168.944C226.423 168.86 226.564 168.837 226.638 168.831ZM226.68 167.331C226.321 167.331 225.918 167.41 225.488 167.579L181.01 184.914C179.963 185.322 179.014 186.46 178.903 187.442L175.551 216.97C175.408 218.215 176.107 218.969 177.214 218.969C177.574 218.969 177.976 218.889 178.407 218.721L219.895 202.55C222.925 201.368 224.992 198.889 225.315 196.046L228.345 169.329C228.483 168.085 227.786 167.331 226.68 167.331Z" fill="#37474F"/>
<path d="M223.372 163.079L176.205 181.672C174.849 182.206 173.926 183.318 173.782 184.592L170.121 216.845L170.762 217.239L174.462 184.648C174.582 183.586 175.359 182.65 176.489 182.204L224.012 163.471L223.372 163.079Z" fill="#BA68C8"/>
<path opacity="0.2" d="M174.541 182.855C174.121 183.36 173.854 183.956 173.782 184.591L170.121 216.845L170.762 217.239L174.462 184.648C174.521 184.117 174.745 183.619 175.096 183.197L174.541 182.855Z" fill="black"/>
<path opacity="0.2" d="M175.096 183.197C175.447 182.774 175.924 182.428 176.489 182.204L224.012 163.471L223.372 163.079L176.205 181.672C175.53 181.938 174.96 182.351 174.541 182.855" fill="black"/>
<path d="M207.063 165.76L206.513 170.613L208.601 171.894L209.333 165.449C209.371 165.119 209.113 164.961 208.762 165.098L207.063 165.76Z" fill="#BA68C8"/>
<path opacity="0.4" d="M207.063 165.76L206.513 170.613L208.601 171.894L209.333 165.449C209.371 165.119 209.113 164.961 208.762 165.098L207.063 165.76Z" fill="black"/>
<path d="M190.968 169.257L190.076 177.113L192.07 178.338L193.571 177.751L194.304 171.307C194.341 170.976 194.66 170.593 195.014 170.456L206.396 166.021L208.761 165.099C209.113 164.962 209.371 165.119 209.333 165.45L208.601 171.894L210.108 171.307L210.998 163.453C211.002 163.42 211.003 163.384 211 163.35C210.989 163.037 210.775 162.674 210.49 162.501L209.641 161.978C209.328 161.785 208.784 161.739 208.429 161.877L191.674 168.406C191.32 168.546 191.005 168.927 190.968 169.257Z" fill="#BA68C8"/>
<path opacity="0.2" d="M192.96 170.482L192.069 178.339L193.571 177.752L194.303 171.308C194.341 170.977 194.66 170.594 195.013 170.457L206.396 166.022L208.761 165.1C209.113 164.963 209.37 165.12 209.333 165.451L208.601 171.895L210.107 171.308L210.998 163.454C211.002 163.421 211.003 163.385 210.999 163.351C210.976 163.091 210.737 162.981 210.422 163.103L193.668 169.632C193.317 169.771 192.997 170.152 192.96 170.482Z" fill="black"/>
<path d="M204.61 165.398C204.855 165.405 205.092 165.466 205.287 165.594C205.593 165.154 206.184 164.871 206.781 164.88C207.043 164.884 207.348 164.975 207.415 165.192C207.438 165.264 207.431 165.34 207.422 165.415C207.342 166.138 207.225 166.858 207.075 167.572C206.965 168.088 206.813 168.641 206.351 168.985C205.972 169.267 205.413 169.357 204.941 169.212C204.771 169.554 204.426 169.822 204.026 169.96C203.933 169.992 202.756 170.08 202.828 169.962C202.386 170.671 201.412 171.401 200.152 171.186C200.152 171.186 199.839 171.962 198.178 171.795C196.517 171.628 195.782 170.057 195.782 170.057C195.876 169.618 196.052 169.442 196.623 169.252C196.906 169.158 197.211 169.049 197.481 168.933C197.872 168.766 198.125 168.377 198.406 168.093C198.693 167.804 199.025 167.531 199.439 167.395C199.853 167.26 200.365 167.289 200.686 167.549C200.724 167.255 200.953 167.008 201.191 166.794C201.406 166.602 201.673 166.41 201.994 166.381C202.088 166.373 202.846 166.486 202.754 166.656C202.981 166.235 203.297 165.831 203.76 165.592C204.013 165.46 204.316 165.389 204.61 165.398Z" fill="#FFA8A7"/>
<path d="M211.313 150.617C210.589 153.488 208.769 156.067 209.578 158.479C210.124 160.109 210.273 159.942 210.053 161.603C209.971 162.219 209.677 163.195 209.431 163.778C209.286 164.125 209.143 164.472 208.996 164.819C208.843 165.183 208.686 165.55 208.464 165.887C208.177 166.322 207.783 166.699 207.409 167.077C206.753 167.742 206.072 168.405 205.23 168.893C205.185 168.919 205.137 168.942 205.084 168.956C204.876 169.015 204.638 168.933 204.49 168.794C203.759 168.105 204.311 167.103 204.695 166.406C205.123 165.63 205.627 164.845 205.606 163.961C205.603 163.852 205.595 163.506 205.607 162.959C205.601 162.961 204.573 162.739 204.573 162.739C204.573 162.739 201.23 162.049 201.169 160.661C201.108 159.274 202.393 157.937 203.356 156.313C204.343 154.65 204.723 153.623 205.709 149.42L211.313 150.617Z" fill="#FFA8A7"/>
<path d="M208.463 165.886C207.702 166.95 206.727 167.898 205.636 168.725C205.453 168.844 205.295 169.05 204.964 169.074C203.404 168.822 204.139 167.055 204.663 166.277C205.091 165.54 205.579 164.802 205.606 163.96C205.672 164.805 205.23 165.603 204.831 166.345C204.422 167.068 203.691 168.547 204.955 168.875C206.282 168.198 207.475 166.941 208.463 165.886Z" fill="#F28F8F"/>
<path d="M205.341 162.69C204.934 162.512 204.487 162.381 204.101 162.167C203.802 162 203.551 161.771 203.351 161.519C202.864 160.908 202.431 160.105 202.572 159.351C202.581 159.305 202.519 159.221 202.488 159.298C202.13 160.147 202.405 161.113 202.938 161.867C203.187 162.22 203.56 162.503 203.967 162.718C204.177 162.829 204.403 162.913 204.644 162.965C204.917 163.024 205.111 163.029 205.365 162.927C205.458 162.89 205.418 162.723 205.341 162.69Z" fill="#F28F8F"/>
<path d="M231.188 93.047C223.961 92.57 218.191 93.8 214.457 101.951C210.238 111.157 206.085 118.258 203.994 124.957C201.902 131.655 198.812 152.844 198.812 152.844C198.812 152.844 204.273 156.922 210.28 155.062L219.374 130.979L231.188 111.491V93.047Z" fill="#E6E6E6"/>
<path d="M313.234 245.088C313.74 244.786 314.478 245.903 314.496 246.6C314.546 248.602 312.975 251.533 309.569 254.126C306.164 256.719 297.993 259.477 295.64 260.503C293.287 261.529 289.967 264.432 287.879 265.847C284.076 268.424 280.569 268.8 278.452 268.302C277.622 268.107 277.136 267.465 276.78 266.883C275.934 265.501 275.894 265.16 276.078 265.086L313.234 245.088Z" fill="#37474F"/>
<path d="M273.949 260.897C274.479 262.391 275.67 264.734 276.777 265.987C277.92 266.77 279.588 266.728 280.805 266.511C284.017 265.938 286.604 264.515 289.253 262.526C290.841 261.334 292.575 260.041 294.804 259.107C297.254 258.081 302.795 256.03 305.199 254.916C307.24 253.97 309.608 252.374 310.991 250.739C312.159 249.357 313.642 246.825 313.493 245.525C312.417 242.828 311.177 241.51 308.991 241.467C306.682 241.422 304.086 242.438 300.507 243.858C299.436 244.284 298.105 244.853 297.522 245.064C295.316 245.862 293.286 246.658 291.654 247.326C290.256 247.898 288.879 248.446 287.295 248.457C286.541 248.462 285.928 248.392 285.324 248.005C284.587 247.535 284.001 246.617 283.329 246.871C283.329 246.871 272.685 254.209 271.788 254.747C270.753 255.37 272.346 256.373 273.949 260.897Z" fill="#455A64"/>
<path d="M298.372 244.536C298.842 244.567 299.455 244.809 299.813 245.004C300.304 245.27 300.712 245.555 301.115 245.916C301.606 246.356 300.933 246.812 300.26 246.36C299.799 246.05 299.3 245.689 298.506 245.363C298.127 245.207 297.441 245.095 297.079 245.226C296.806 245.326 296.449 245.458 296.449 245.458C296.36 245 297.748 244.495 298.372 244.536Z" fill="#FAFAFA"/>
<path d="M292.722 246.544C293.116 246.303 293.522 246.235 294.016 246.304C294.599 246.385 295.1 246.65 295.541 246.97C295.899 247.23 296.73 247.936 297.003 248.266C297.262 248.576 296.347 249 296.015 248.686C295.686 248.377 295.06 247.813 294.649 247.521C294.397 247.341 293.362 246.698 292.68 246.91L292.388 247.031C292.311 246.917 292.438 246.753 292.547 246.667C292.602 246.622 292.66 246.581 292.722 246.544Z" fill="#FAFAFA"/>
<path d="M289.559 247.954C289.92 247.9 290.129 247.84 290.471 247.966C290.791 248.085 291.225 248.318 291.476 248.532C292.168 249.125 292.4 249.438 292.811 250.031C293.1 250.45 292.124 250.771 291.908 250.501C291.227 249.649 290.845 249.062 289.921 248.644C289.16 248.3 288.684 248.315 288.684 248.315C288.66 248.227 288.787 248.154 288.882 248.124C289.031 248.078 289.401 247.977 289.559 247.954Z" fill="#FAFAFA"/>
<path d="M264.467 244.244C264.467 244.244 270.444 253.312 272.094 255.332C272.621 255.978 274.308 255.53 275.275 255.448C276.24 255.366 277.767 255.238 278.806 255.488C281.877 256.227 283.622 255.909 282.895 252.39C282.746 251.67 283.029 251.191 284.025 250.902C284.769 250.685 285.622 250.614 286.225 250.172C286.291 250.064 286.139 249.956 286.01 249.901C285.024 249.488 284.467 249.194 283.779 247.915C281.652 243.958 279.706 235.808 279.706 235.808L264.467 244.244Z" fill="#FFA8A7"/>
<path d="M219.196 264.523C221.027 262.012 222.017 257.178 226.045 247.355L240.983 256.736L232.427 271.043C231.941 271.76 231.923 272.839 231.753 273.049C229.757 275.509 219.196 264.523 219.196 264.523Z" fill="#FFA8A7"/>
<path d="M213.664 269.879C213.686 269.734 213.596 268.55 213.639 268.408C214.028 267.133 214.946 266.781 216.125 266.069C217.587 265.186 219.004 264.129 219.38 263.682C219.775 263.213 219.851 262.97 220.464 262.756C221.509 262.392 223.188 262.363 225.255 263.295C228.643 264.821 229.679 266.66 229.483 268.652C229.335 270.171 229.187 272.191 230.748 273.095C231.398 273.471 232.425 271.043 232.425 271.043C233.388 272.427 232.035 274.343 231.33 277.147C230.846 279.07 230.964 279.908 231.235 281.861C231.578 284.323 231.975 284.313 233.499 284.484C234.812 284.632 238.535 284.418 240.799 285.774C243.92 287.644 243.087 290.131 243.087 290.131C242.683 291.077 239.288 295.668 226.886 293.954C223.289 293.457 215.732 288.606 215.848 288.153C215.955 287.732 215.836 287.185 215.819 286.76C215.775 285.672 215.721 284.585 215.666 283.498C215.616 282.507 215.733 281.354 215.455 280.391C215.208 279.534 215.09 278.713 214.993 277.822C214.755 275.639 214.519 273.455 214.281 271.272C214.212 270.643 213.565 270.499 213.664 269.879Z" fill="#455A64"/>
<path d="M212.101 269.448C210.878 270.463 211.622 273.408 213.263 276.943C213.99 278.511 215.345 281.21 214.947 284.079C214.55 286.948 214.48 288.304 215.342 289.649C216.691 291.753 223.901 294.445 228.15 295.288C228.15 295.288 224.257 291.097 223.83 284.763C223.402 278.43 222.839 274.347 219.462 271.539C215.192 267.987 212.101 269.448 212.101 269.448Z" fill="#263238"/>
<path d="M243.086 290.132C243.086 290.132 240.599 294.129 231.004 293.998C227.228 293.947 225.206 292.369 225.112 287.445C225.001 281.511 224.443 275.518 222.206 272.572C219.968 269.626 216.404 268.198 213.639 268.408C213.159 268.474 212.551 268.867 212.101 269.448C212.101 269.448 214.868 268.668 219.173 271.732C222.351 273.994 223.211 278.719 223.163 284.587C223.142 287.112 222.964 289.976 223.825 291.891C224.62 293.657 226.382 294.867 228.406 295.354C233.623 296.611 240.761 294.54 242.567 292.649C243.604 291.388 243.086 290.132 243.086 290.132Z" fill="#37474F"/>
<path d="M231.559 283.407C231.559 283.407 232.259 283.831 232.336 284.389C232.412 284.947 232.187 286.236 230.824 286.966C230.247 287.275 229.743 287.167 230.66 286.127C231.578 285.087 231.559 283.407 231.559 283.407Z" fill="#FAFAFA"/>
<path d="M231.044 280.336C231.044 280.336 231.349 280.504 231.426 281.329C231.466 281.771 230.664 283.552 229.654 283.977C228.645 284.401 229.19 283.403 229.629 282.913C230.109 282.375 230.956 281.153 231.044 280.336Z" fill="#FAFAFA"/>
<path d="M231.385 276.943C231.385 276.943 231.712 277.021 231.362 278.156C231.243 278.539 229.922 279.663 229.271 279.73C228.62 279.797 228.304 279.518 229.103 279.021C229.732 278.63 231.262 277.493 231.385 276.943Z" fill="#FAFAFA"/>
<path d="M255.866 150.118C255.866 150.118 261.67 156.084 265.18 167.243C269.441 180.789 271.089 191.208 272.421 198.769C273.259 203.519 274.06 208.101 275.989 217.235C277.821 225.915 282.371 244.694 282.371 244.694C282.371 244.694 281.572 247.556 277.068 249.246C272.565 250.936 267.693 250.288 267.693 250.288C267.693 250.288 264.605 245.765 258.168 235.11C253.8 227.881 253.08 223.944 252.235 220.244C251.603 217.458 250.851 212.018 250.913 209.516L226.75 174.303C226.75 174.303 224.159 171.99 221.902 167.129C218.486 159.776 222.847 149.182 222.847 149.182L255.866 150.118Z" fill="#37474F"/>
<path d="M255.866 150.118C255.866 150.118 261.67 156.084 265.18 167.243C269.441 180.789 271.089 191.208 272.421 198.769C273.259 203.519 274.06 208.101 275.989 217.235C277.821 225.915 282.371 244.694 282.371 244.694C282.371 244.694 281.572 247.556 277.068 249.246C272.565 250.936 267.693 250.288 267.693 250.288C267.693 250.288 264.605 245.765 258.168 235.11C253.8 227.881 253.08 223.944 252.235 220.244C251.603 217.458 250.851 212.018 250.913 209.516L226.75 174.303C226.75 174.303 224.159 171.99 221.902 167.129C218.486 159.776 222.847 149.182 222.847 149.182L255.866 150.118Z" fill="#37474F"/>
<path d="M271.947 196.056C270.676 188.778 268.953 179.239 265.18 167.243C264.091 163.781 262.781 160.821 261.493 158.382L230.843 157.92C228.563 162.491 226.758 168.202 231.749 175.178L233.064 183.5L250.914 209.514C250.852 212.017 251.604 217.457 252.236 220.242C253.081 223.942 253.801 227.879 258.169 235.108C258.361 235.425 258.539 235.72 258.725 236.026C260.662 233.548 263.686 229.53 264.843 227.183C266.599 223.616 267.802 216.743 269.643 208.037C270.321 204.83 271.199 200.18 271.947 196.056Z" fill="#263238"/>
<path d="M235.721 150.118C234.205 151.45 230.431 155.914 229.815 162.784C229.554 165.693 230.519 171.177 234.481 175.303C235.694 190.542 239.206 219.893 239.206 219.893C234.51 224.039 233.294 226.714 230.576 234.146C228.926 238.658 224.113 252.298 222.253 257.386C233.644 257.81 235.79 266.181 235.79 266.181C235.79 266.181 249.596 247.093 256.564 236.309C261.716 228.338 262.374 226.439 263.774 221.691C265.172 216.943 265.434 212.54 267.127 202.624C268.82 192.708 271.822 179.049 272.651 169.287C273.48 159.526 273.636 149.18 273.636 149.18L235.721 150.118Z" fill="#37474F"/>
<path d="M220.657 162.062C221.809 161.779 223.449 160.834 224.069 159.985C224.441 159.474 224.666 158.748 224.95 157.828C225.262 156.824 225.649 155.573 226.385 154.166L227.263 154.503C226.56 155.851 226.199 157.014 225.881 158.041C225.574 159.028 225.334 159.807 224.885 160.423C224.149 161.434 222.243 162.578 220.74 162.886C220.707 162.61 220.678 162.336 220.657 162.062Z" fill="#263238"/>
<path d="M243.478 170.794C243.233 170.789 243.026 170.771 242.864 170.741C241.469 170.477 240.385 169.673 238.225 167.304C236.58 165.5 236.749 164.204 237.027 162.058C237.129 161.27 238.097 157.057 238.158 155.947L239.08 156.387C239.017 157.523 238.086 161.349 237.983 162.149C237.706 164.283 237.582 165.257 238.983 166.796C240.981 168.986 241.934 169.72 243.07 169.935C244.171 170.148 249.048 169.455 250.348 168.684C251.098 168.236 252.356 162.73 253.091 157.884L254.044 157.991C253.674 160.44 252.349 168.501 250.896 169.363C249.605 170.128 245.416 170.838 243.478 170.794Z" fill="#263238"/>
<path d="M222.603 97.4682C219.347 102.805 219.75 107.585 220.689 115.072C221.555 121.977 222.163 126.254 222.905 134.795C223.752 144.553 222.236 150.707 222.236 150.707C222.236 150.707 222.558 154.842 236.744 157.94C261.674 163.386 273.637 157.181 273.637 157.181C273.637 157.181 274.239 145.139 273.272 129.389C272.189 111.744 271.83 109.162 270.239 104.965C269.07 102.646 266.858 100.561 263.861 99.3942C261.387 98.4302 255.46 96.7672 251.943 95.6032C243.756 92.8942 234.294 93.0622 234.294 93.0622C227.195 92.6522 224.292 94.6972 222.603 97.4682Z" fill="#F5F5F5"/>
<path d="M232.552 94.0103C233.08 94.0103 233.64 94.0272 234.216 94.0602L234.267 94.0633L234.318 94.0622C234.325 94.0622 234.432 94.0602 234.628 94.0602C236.2 94.0602 244.404 94.1793 251.523 96.5363C252.946 97.0073 254.784 97.5663 256.56 98.1073C259.205 98.9123 261.941 99.7453 263.38 100.305C265.925 101.296 268.025 103.122 269.148 105.32C270.646 109.287 271.006 111.491 272.107 129.442C272.942 143.043 272.598 153.988 272.495 156.565C270.835 157.253 265.345 159.179 255.963 159.179C250.105 159.179 243.735 158.436 237.03 156.972C225.291 154.408 223.621 151.223 223.422 150.712C223.68 149.549 224.841 143.648 224.066 134.721C223.438 127.491 222.907 123.312 222.234 118.021L221.847 114.966C220.909 107.495 220.53 103.02 223.633 97.9333C224.818 95.9923 226.802 94.0103 232.552 94.0103ZM232.552 93.0103C226.703 93.0103 224.146 94.9363 222.601 97.4683C219.346 102.805 219.749 107.585 220.688 115.072C221.554 121.977 222.161 126.254 222.903 134.795C223.751 144.553 222.234 150.707 222.234 150.707C222.234 150.707 222.556 154.842 236.741 157.94C244.343 159.6 250.742 160.178 255.961 160.178C267.858 160.178 273.635 157.181 273.635 157.181C273.635 157.181 274.236 145.139 273.27 129.389C272.188 111.744 271.827 109.162 270.237 104.965C269.067 102.647 266.855 100.561 263.859 99.3942C261.383 98.4302 255.458 96.7672 251.94 95.6032C244.662 93.1942 236.375 93.0602 234.626 93.0602C234.408 93.0602 234.291 93.0622 234.291 93.0622C233.684 93.0272 233.103 93.0103 232.552 93.0103Z" fill="#E0E0E0"/>
<path d="M252.557 89.5583L251.886 96.0493C247.745 96.8233 237.68 96.2683 235.791 94.0613L236.187 88.1133L252.557 89.5583Z" fill="#FFA8A7"/>
<path d="M263.345 72.9199C263.345 72.9199 265.267 74.1669 266.726 78.4759L263.877 80.2679C262.94 77.2409 261.929 74.1579 263.345 72.9199Z" fill="#F28F8F"/>
<path d="M256 60.8591C263.071 61.2621 264.253 64.4221 263.202 74.7641C265.684 84.5831 262.257 88.4671 260.781 89.7531C257.448 91.2841 254.061 91.5371 249.458 90.5081C245.949 89.7241 237.061 87.4631 233.338 82.7331C228.958 77.1681 227.813 68.7061 232.478 65.5571C239.043 61.1241 253.184 60.6991 256 60.8591Z" fill="#FFA8A7"/>
<path d="M260.781 89.7531C259.963 90.4641 255.233 91.7491 252.318 91.4751L252.558 89.5581C252.558 89.5581 256.606 90.2071 260.781 89.7531Z" fill="#F28F8F"/>
<path d="M256.739 68.0022C256.589 68.4462 256.364 68.8722 256.075 69.2622C255.28 70.3352 254.144 70.9122 252.932 71.5632C253.373 72.8282 253.849 74.1372 253.869 75.4792C253.874 75.9082 253.835 76.3622 253.551 76.7212C253.054 77.3552 252.214 77.2932 251.827 76.7052C251.363 75.9992 251.038 75.2642 250.388 74.6512C249.637 73.9422 248.611 73.4052 247.484 73.3102C243.218 72.9542 243.202 78.6492 244.913 80.5772C247.711 83.7332 250.009 81.7082 250.009 81.7082C250.009 81.7082 251.448 86.5752 247.336 88.6842C247.336 88.6842 240.709 90.0772 236.187 88.1132C234.118 84.4602 231.326 82.3282 229.104 78.4382C225.217 71.6332 227.079 65.6562 229.728 64.4272C228.983 61.2492 231.237 58.1262 236.03 56.1872C240.755 54.2752 247.284 55.2502 252.309 55.9402C255.293 56.3502 258.381 56.2002 261.294 55.5042C261.706 55.4052 262.124 55.2952 262.552 55.2962C262.98 55.2982 263.433 55.4312 263.681 55.7312C264.004 56.1222 263.89 56.6692 263.643 57.0982C263.396 57.5272 263.03 57.9072 262.847 58.3602C263.882 58.1182 264.964 58.7792 265.431 59.6082C266.085 60.7692 265.813 62.2162 264.956 63.2752C264.099 64.3342 262.731 65.0322 261.29 65.3992C259.849 65.7652 258.327 65.8262 256.824 65.8172C257.026 66.5352 256.98 67.2912 256.739 68.0022Z" fill="#263238"/>
<path d="M252.173 93.2794C253.254 93.2344 254.428 95.1484 256.549 97.0424C256.549 97.0424 250.571 100.016 241.653 98.8644C232.737 97.7124 231.025 93.0584 231.025 93.0584C231.025 93.0584 233.064 91.7164 234.137 90.8114C235.443 89.7114 236.082 89.6934 236.082 89.6934L235.977 91.2594C235.977 91.2594 237.688 92.7784 243.123 93.7214C248.559 94.6634 252.173 93.2794 252.173 93.2794Z" fill="#E6E6E6"/>
<path d="M283.733 138.313C283.733 138.313 281.185 127.35 279.326 119.663C277.467 111.977 278.187 103.098 264.079 100.056C261.746 103.109 260.225 107.786 261.012 113.619C261.799 119.452 264.901 128.6 265.681 131.692C266.463 134.784 269.105 140.942 272.468 145.227C276.939 150.925 285.278 160.565 288.655 164.108C290.218 165.748 291.572 167.408 293.01 169.152C294.51 170.97 296.5 172.383 298.277 174.009C299.097 174.76 300.274 175.298 301.426 175.574C302.184 175.756 302.936 175.506 303.655 175.676C304.398 175.851 304.849 176.44 305.728 176.461C306.705 176.484 307.499 175.906 308.381 175.979C309.305 176.055 310.205 176.342 311.173 176.321C312.045 176.301 312.64 176.195 313.475 176.494C314.158 176.74 315.114 177.516 315.893 177.12C316.765 176.675 316.499 175.858 316.19 175.183C315.644 173.992 314.116 172.823 312.813 172.231C311.305 171.545 310.001 170.568 308.401 170.034C306.954 169.552 305.688 168.49 304.644 167.496C303.916 166.801 303.439 165.728 304.917 165.713C306.659 165.696 308.82 166.263 310.406 165.319C311.503 164.666 311.131 163.834 310.068 163.439C308.288 162.777 306.671 162.04 305.011 161.157C303.358 160.278 301.832 159.255 300.157 158.419C299.286 157.984 298.328 157.621 297.39 157.287C294.763 156.351 293.619 154.097 292.294 152.107C290.448 149.332 285.802 142.002 283.733 138.313Z" fill="#FFA8A7"/>
<path d="M263.395 126.594C263.395 126.594 260.922 118.256 260.287 114.772C259.652 111.288 259.292 102.226 263.5 99.2583C266.537 99.8923 274.662 101.132 277.002 107.686C279.343 114.24 282.875 131.502 282.875 131.502L293.453 152.929C293.453 152.929 293.495 154.925 289.063 157.5C284.631 160.076 282.37 159.198 282.37 159.198C282.37 159.198 273.636 147.859 269.397 142.27C266.552 138.516 265.852 136.028 263.395 126.594Z" fill="#E6E6E6"/>
<path d="M183.471 90.7676L183.49 77.8796L196.128 76.7376C196.403 76.7126 196.65 76.7646 196.855 76.8676C197.467 77.1756 203.278 80.0607 203.48 80.1607C204.098 80.4657 204.325 81.2356 203.75 81.7546L190.105 94.0657L183.471 90.7676Z" fill="#BA68C8"/>
<path d="M143.825 119.845L143.824 79.9649C143.824 79.3859 144.298 78.6809 144.882 78.3919L182.802 59.6539C183.387 59.3639 184.333 59.3679 184.914 59.6629L190.81 62.6499C191.392 62.9449 191.863 63.6529 191.863 64.2319L191.864 104.112C191.864 104.691 191.39 105.396 190.805 105.685L152.886 124.423C152.301 124.713 151.355 124.709 150.774 124.414L144.878 121.427C144.297 121.133 143.825 120.424 143.825 119.845Z" fill="#BA68C8"/>
<path opacity="0.15" d="M152.713 124.495C152.21 124.662 151.827 124.42 151.825 123.898L151.827 84.0201C151.828 83.7291 151.946 83.4091 152.14 83.1241L144.112 79.1021C143.932 79.3801 143.821 79.6861 143.824 79.9671V119.848C143.823 120.425 144.292 121.132 144.877 121.429L150.772 124.415C151.302 124.68 152.13 124.711 152.713 124.495Z" fill="black"/>
<path d="M202.764 80.0348L191.865 81.0198L191.864 64.2318C191.864 63.6528 191.39 63.4178 190.805 63.7078L152.886 82.4448C152.302 82.7348 151.827 83.4388 151.827 84.0178L151.828 123.898C151.828 124.477 152.302 124.712 152.887 124.422L190.807 105.684C191.392 105.394 191.866 104.69 191.866 104.111L191.865 92.4768L203.751 81.7528C204.514 81.0658 203.865 79.9348 202.764 80.0348Z" fill="#BA68C8"/>
<path opacity="0.35" d="M202.764 80.0348L191.865 81.0198L191.864 64.2318C191.864 63.6528 191.39 63.4178 190.805 63.7078L152.886 82.4448C152.302 82.7348 151.827 83.4388 151.827 84.0178L151.828 123.898C151.828 124.477 152.302 124.712 152.887 124.422L190.807 105.684C191.392 105.394 191.866 104.69 191.866 104.111L191.865 92.4768L203.751 81.7528C204.514 81.0658 203.865 79.9348 202.764 80.0348Z" fill="white"/>
<path d="M182.885 98.058C182.968 97.873 182.968 97.684 182.876 97.595L181.253 96.052C180.886 95.7 180.814 95.027 181.053 94.248C181.064 94.233 181.065 94.221 181.066 94.21C181.066 94.21 181.066 94.21 181.072 94.203C181.304 93.443 181.808 92.741 182.388 92.377L184.985 90.758C185.138 90.665 185.258 90.477 185.286 90.29C185.425 89.352 185.493 88.384 185.497 87.429C185.5 86.512 185.433 85.616 185.296 84.754C185.269 84.602 185.153 84.528 185 84.583L182.406 85.524C181.827 85.726 181.325 85.534 181.095 85.011C181.088 84.991 181.085 84.976 181.078 84.956C180.84 84.425 180.916 83.666 181.285 82.962L182.912 79.821C183.003 79.644 183.009 79.448 182.921 79.351C181.993 78.285 180.85 77.53 179.512 77.127C179.392 77.087 179.231 77.172 179.108 77.333L177.061 80.197C176.606 80.832 175.966 81.239 175.391 81.256C175.382 81.259 175.374 81.251 175.363 81.255C174.791 81.261 174.4 80.873 174.337 80.247L174.046 77.422C174.029 77.256 173.913 77.181 173.766 77.217C172.227 77.658 170.475 78.524 168.929 79.6C168.786 79.702 168.669 79.893 168.652 80.077L168.346 83.199C168.287 83.886 167.887 84.662 167.32 85.215C167.31 85.23 167.3 85.233 167.289 85.248C166.713 85.793 166.072 86.022 165.621 85.829L163.583 84.984C163.463 84.932 163.299 85.014 163.173 85.17C161.839 86.891 160.688 88.774 159.752 90.763C159.664 90.944 159.669 91.137 159.761 91.226L161.379 92.765C161.743 93.101 161.812 93.797 161.574 94.565C161.572 94.588 161.566 94.607 161.559 94.626C161.315 95.401 160.829 96.069 160.248 96.433L157.636 98.063C157.494 98.153 157.368 98.348 157.346 98.528C157.206 99.477 157.133 100.441 157.13 101.396C157.129 102.34 157.197 103.237 157.333 104.048C157.359 104.211 157.481 104.278 157.631 104.219L160.233 103.286C160.807 103.08 161.308 103.283 161.551 103.818C161.55 103.83 161.558 103.838 161.557 103.849C161.798 104.395 161.723 105.143 161.354 105.847L159.731 108.992C159.634 109.177 159.629 109.361 159.711 109.465C160.642 110.535 161.791 111.283 163.125 111.693C163.246 111.733 163.412 111.64 163.529 111.476L165.577 108.611C166.032 107.976 166.673 107.569 167.245 107.563C167.255 107.56 167.269 107.56 167.278 107.557C167.846 107.548 168.233 107.931 168.3 108.562L168.591 111.387C168.607 111.553 168.718 111.635 168.871 111.592C169.64 111.372 170.452 111.053 171.286 110.643C172.116 110.229 172.93 109.749 173.707 109.209C173.851 109.107 173.963 108.912 173.985 108.732L174.29 105.61C174.355 104.915 174.744 104.154 175.312 103.602C175.327 103.591 175.342 103.58 175.347 103.573C175.923 103.017 176.555 102.79 177.015 102.98L179.052 103.837C179.168 103.885 179.337 103.807 179.459 103.647C180.799 101.919 181.945 100.043 182.885 98.058ZM171.308 102.607C167.352 104.552 164.145 102.458 164.157 97.938C164.165 93.414 167.384 88.144 171.337 86.195C175.285 84.253 178.489 86.358 178.482 90.882C178.474 95.406 175.251 100.662 171.308 102.607Z" fill="white"/>
</svg>
