<svg width="40" height="41" viewBox="0 0 40 41" fill="none" xmlns="http://www.w3.org/2000/svg">
<path d="M28.9002 9.32734C28.5046 9.32734 28.1179 9.44757 27.789 9.67282C27.4601 9.89808 27.2038 10.2182 27.0524 10.5928C26.901 10.9674 26.8614 11.3796 26.9386 11.7773C27.0158 12.1749 27.2062 12.5402 27.4859 12.8269C27.7657 13.1136 28.122 13.3088 28.51 13.3879C28.8979 13.467 29.3001 13.4264 29.6655 13.2713C30.031 13.1161 30.3433 12.8534 30.5631 12.5163C30.7829 12.1791 30.9002 11.7828 30.9002 11.3773C30.9002 10.8336 30.6894 10.3122 30.3144 9.92777C29.9393 9.54332 29.4306 9.32734 28.9002 9.32734ZM36.5668 13.4615C36.5344 12.0441 36.2754 10.6417 35.8002 9.31025C35.3764 8.17102 34.7168 7.13944 33.8668 6.2865C33.0415 5.41086 32.0328 4.73906 30.9168 4.32192C29.6213 3.81995 28.2516 3.5484 26.8668 3.519C25.1002 3.4165 24.5335 3.4165 20.0002 3.4165C15.4668 3.4165 14.9002 3.4165 13.1335 3.519C11.7487 3.5484 10.3791 3.81995 9.0835 4.32192C7.96962 4.74328 6.96172 5.4145 6.1335 6.2865C5.27921 7.13243 4.62379 8.16642 4.21683 9.31025C3.7271 10.6382 3.46218 12.0421 3.4335 13.4615C3.3335 15.2723 3.3335 15.8532 3.3335 20.4998C3.3335 25.1465 3.3335 25.7273 3.4335 27.5382C3.46218 28.9575 3.7271 30.3615 4.21683 31.6894C4.62379 32.8333 5.27921 33.8672 6.1335 34.7132C6.96172 35.5852 7.96962 36.2564 9.0835 36.6777C10.3791 37.1797 11.7487 37.4513 13.1335 37.4807C14.9002 37.5832 15.4668 37.5832 20.0002 37.5832C24.5335 37.5832 25.1002 37.5832 26.8668 37.4807C28.2516 37.4513 29.6213 37.1797 30.9168 36.6777C32.0328 36.2606 33.0415 35.5888 33.8668 34.7132C34.7206 33.8634 35.3807 32.8309 35.8002 31.6894C36.2754 30.3579 36.5344 28.9556 36.5668 27.5382C36.5668 25.7273 36.6668 25.1465 36.6668 20.4998C36.6668 15.8532 36.6668 15.2723 36.5668 13.4615ZM33.5668 27.3332C33.5547 28.4176 33.3631 29.492 33.0002 30.5107C32.7341 31.2541 32.3066 31.9259 31.7502 32.4753C31.2096 33.0399 30.5555 33.4771 29.8335 33.7565C28.8397 34.1285 27.7914 34.3249 26.7335 34.3373C25.0668 34.4228 24.4502 34.4398 20.0668 34.4398C15.6835 34.4398 15.0668 34.4398 13.4002 34.3373C12.3016 34.3584 11.2078 34.185 10.1668 33.8248C9.47647 33.5311 8.85242 33.095 8.3335 32.5436C7.78031 31.9948 7.35823 31.3225 7.10016 30.579C6.69326 29.5457 6.46757 28.4469 6.4335 27.3332C6.4335 25.6248 6.3335 24.9928 6.3335 20.4998C6.3335 16.0069 6.3335 15.3748 6.4335 13.6665C6.44097 12.5579 6.63841 11.4592 7.01683 10.4207C7.31024 9.6996 7.7606 9.05684 8.3335 8.5415C8.83985 7.95412 9.46564 7.48763 10.1668 7.17484C11.1827 6.79908 12.2535 6.60268 13.3335 6.594C15.0002 6.594 15.6168 6.4915 20.0002 6.4915C24.3835 6.4915 25.0002 6.4915 26.6668 6.594C27.7248 6.60644 28.773 6.80284 29.7668 7.17484C30.5242 7.46295 31.204 7.93137 31.7502 8.5415C32.2963 9.06627 32.7231 9.70784 33.0002 10.4207C33.3706 11.4609 33.5623 12.5591 33.5668 13.6665C33.6502 15.3748 33.6668 16.0069 33.6668 20.4998C33.6668 24.9928 33.6502 25.6248 33.5668 27.3332ZM20.0002 11.7361C18.3098 11.7395 16.6584 12.2563 15.2546 13.2213C13.8507 14.1864 12.7575 15.5563 12.1129 17.1579C11.4683 18.7596 11.3014 20.5211 11.6332 22.22C11.9649 23.9189 12.7806 25.4788 13.977 26.7028C15.1734 27.9267 16.6968 28.7597 18.3549 29.0964C20.013 29.4332 21.7313 29.2586 23.2926 28.5948C24.8539 27.931 26.1883 26.8078 27.127 25.3669C28.0658 23.9261 28.5668 22.2324 28.5668 20.4998C28.569 19.3469 28.3488 18.2049 27.9189 17.1395C27.489 16.0741 26.8578 15.1063 26.0616 14.2918C25.2655 13.4774 24.3201 12.8323 23.2798 12.3937C22.2396 11.9551 21.125 11.7316 20.0002 11.7361ZM20.0002 26.1886C18.9025 26.1886 17.8294 25.8549 16.9167 25.2299C16.0041 24.6048 15.2927 23.7163 14.8726 22.6768C14.4526 21.6373 14.3427 20.4935 14.5568 19.39C14.771 18.2865 15.2995 17.2729 16.0757 16.4773C16.8519 15.6817 17.8408 15.1399 18.9174 14.9204C19.994 14.7009 21.1099 14.8135 22.1241 15.2441C23.1382 15.6747 24.005 16.4038 24.6148 17.3393C25.2247 18.2748 25.5502 19.3747 25.5502 20.4998C25.5502 21.2469 25.4066 21.9866 25.1277 22.6768C24.8488 23.367 24.44 23.9941 23.9246 24.5224C23.4092 25.0506 22.7974 25.4697 22.1241 25.7556C21.4507 26.0414 20.729 26.1886 20.0002 26.1886Z" fill="#F82586"/>
</svg>
