<svg width="44" height="44" viewBox="0 0 44 44" fill="none" xmlns="http://www.w3.org/2000/svg">
<path d="M41.2501 16.5C41.2515 14.512 40.4987 12.5974 39.1436 11.1428C37.7884 9.68818 35.932 8.80178 33.9488 8.66251C26.0151 8.25001 17.9576 8.25001 10.0788 8.63501C6.20133 8.63501 2.75008 12.375 2.75008 16.5C2.35023 20.4867 2.35023 24.5033 2.75008 28.49C2.74639 30.423 3.50791 32.2788 4.86826 33.652C6.22861 35.0252 8.07718 35.8042 10.0101 35.8188C13.9976 36.0388 17.9942 36.1488 22.0001 36.1488C26.0059 36.1488 29.9797 36.0433 33.9213 35.8325C35.8474 35.8291 37.695 35.0691 39.0659 33.7162C40.4368 32.3633 41.2212 30.5259 41.2501 28.6C41.8132 24.5863 41.8132 20.5137 41.2501 16.5ZM38.5001 28.3663C38.4933 28.4211 38.4933 28.4765 38.5001 28.5313C38.4965 29.1391 38.373 29.7403 38.1366 30.3004C37.9002 30.8604 37.5557 31.3683 37.1226 31.795C36.6896 32.2216 36.1766 32.5586 35.6131 32.7866C35.0496 33.0146 34.4467 33.1292 33.8388 33.1238C25.9242 33.5363 17.9935 33.5363 10.0788 33.1238C9.46623 33.1185 8.86081 32.9914 8.29778 32.7499C7.73476 32.5085 7.22538 32.1574 6.79929 31.7173C6.3732 31.2771 6.0389 30.7566 5.81585 30.186C5.59281 29.6154 5.48547 29.0062 5.50008 28.3938C5.10763 24.5216 5.10763 20.6197 5.50008 16.7475C5.50626 16.6973 5.50626 16.6465 5.50008 16.5963C5.48942 15.3056 5.95934 14.0572 6.81839 13.094C7.67744 12.1307 8.86415 11.5215 10.1476 11.385C14.0801 11.2063 18.0401 11.1238 22.0001 11.1238C25.9601 11.1238 29.9201 11.2063 33.8526 11.385H33.9213C36.2726 11.385 38.5001 13.915 38.5001 16.5963C38.4933 16.6648 38.4933 16.7339 38.5001 16.8025C39.0385 20.6291 39.0385 24.5122 38.5001 28.3388V28.3663Z" fill="#F82586"/>
<path d="M28.5865 21.3261L18.769 16.2661C18.6083 16.183 18.4328 16.1324 18.2525 16.1172C18.0723 16.102 17.8908 16.1224 17.7184 16.1773C17.546 16.2322 17.3862 16.3205 17.2479 16.4372C17.1097 16.5539 16.9958 16.6966 16.9127 16.8573C16.8297 17.0181 16.7791 17.1935 16.7638 17.3738C16.7486 17.5541 16.769 17.7356 16.8239 17.9079C16.8788 18.0803 16.9671 18.2402 17.0838 18.3784C17.2005 18.5166 17.3433 18.6305 17.504 18.7136L24.9702 22.5498L19.4702 25.3961V22.5498C19.4702 22.1852 19.3253 21.8354 19.0675 21.5776C18.8096 21.3197 18.4599 21.1748 18.0952 21.1748C17.7305 21.1748 17.3808 21.3197 17.1229 21.5776C16.8651 21.8354 16.7202 22.1852 16.7202 22.5498V27.6648C16.7202 28.0295 16.8651 28.3793 17.1229 28.6371C17.3808 28.895 17.7305 29.0398 18.0952 29.0398C18.3151 29.0407 18.532 28.9889 18.7277 28.8886L28.5452 23.7736C28.7694 23.6575 28.9573 23.4818 29.0883 23.266C29.2192 23.0501 29.2882 22.8023 29.2877 22.5498C29.2922 22.3016 29.2294 22.0567 29.106 21.8412C28.9825 21.6257 28.803 21.4477 28.5865 21.3261Z" fill="#F82586"/>
</svg>
